<?xml version="1.0" encoding="UTF-8"?>
<svg version="1.1" xmlns="http://www.w3.org/2000/svg" width="900" height="900">
<path d="M0 0 C297 0 594 0 900 0 C900 297 900 594 900 900 C603 900 306 900 0 900 C0 603 0 306 0 0 Z " fill="#FEFEFE" transform="translate(0,0)"/>
<path d="M0 0 C13.67178032 5.62775745 24.2720182 29.86166804 29.74511719 42.75537109 C36.98742352 60.14476888 39.58747531 78.42072499 35 97 C33.8748566 99.58690757 32.57761237 101.63358144 31 104 C30.690625 104.845625 30.38125 105.69125 30.0625 106.5625 C28.52593871 110.08755238 26.73662148 112.26337852 24 115 C20.36442239 115.72965345 18.93981627 114.96528409 15.6953125 113.09375 C14.49403984 112.2447528 13.3042771 111.37929392 12.125 110.5 C11.50512207 110.04512207 10.88524414 109.59024414 10.24658203 109.12158203 C-2.9058391 99.2356396 -8.67496252 86.18612355 -11 70 C-11.98069935 49.54871012 -10.54969191 31.33812579 -4 12 C-3.59910156 10.78570312 -3.19820312 9.57140625 -2.78515625 8.3203125 C-1.86708883 5.54324024 -0.93907919 2.77002128 0 0 Z " fill="#040404" transform="translate(714,474)"/>
<path d="M0 0 C3.33995892 3.08571006 4.9536877 6.72914103 6.8125 10.8125 C7.3369873 11.95102417 7.3369873 11.95102417 7.87207031 13.11254883 C8.92282198 15.40477079 9.96208609 17.70194243 11 20 C11.44061768 20.9605127 11.44061768 20.9605127 11.89013672 21.94042969 C15.77558744 30.4290698 18.74299842 38.94121637 21 48 C21.17660156 48.67732178 21.35320312 49.35464355 21.53515625 50.05249023 C25.97215676 68.13765644 23.14936637 86.04336235 14.375 102.3125 C11.578068 106.57129512 8.21775743 110.34765838 4.8125 114.125 C4.02721924 114.99765503 4.02721924 114.99765503 3.22607422 115.88793945 C1.88159323 117.32166355 0.44601554 118.6687476 -1 120 C-1.99 120 -2.98 120 -4 120 C-18.80481094 104.33444424 -23.76803614 85.09180326 -23.3984375 64.0625 C-22.54574079 45.26688752 -13.83152105 13.83152105 0 0 Z " fill="#050505" transform="translate(124,159)"/>
<path d="M0 0 C28.46704372 15.19817272 28.46704372 15.19817272 38.25 24.5 C38.25 25.49 38.25 26.48 38.25 27.5 C37.14591797 27.89832031 37.14591797 27.89832031 36.01953125 28.3046875 C35.04371094 28.65789063 34.06789063 29.01109375 33.0625 29.375 C32.09957031 29.72304688 31.13664063 30.07109375 30.14453125 30.4296875 C28.36560397 31.08748247 26.5966369 31.77409379 24.84765625 32.5078125 C3.26140027 40.75278847 -25.95183535 43.75257084 -47.8125 35.375 C-58.28497283 30.6790102 -70.34347148 23.35619772 -76.75 13.5 C-77.12961271 11.50826576 -77.46866295 9.50797425 -77.75 7.5 C-69.99740538 2.27202553 -62.64456612 -2.42906751 -53.75 -5.5 C-52.99501221 -5.83789551 -52.24002441 -6.17579102 -51.4621582 -6.52392578 C-35.44429854 -12.28856733 -14.83633413 -6.85712922 0 0 Z " fill="#050505" transform="translate(638.75,703.5)"/>
<path d="M0 0 C-0.75820278 14.15311849 -6.44012286 26.88320962 -13.03759766 39.20166016 C-13.91920799 40.84903249 -14.77909372 42.5079833 -15.63671875 44.16796875 C-18.63244829 49.86850396 -21.92833075 55.01323337 -26 60 C-26.51046875 60.65613281 -27.0209375 61.31226563 -27.546875 61.98828125 C-37.47065919 74.15673092 -52.04448683 81.47094914 -67.25 84.6875 C-72.82129214 85.15177434 -78.41414523 85.27524502 -84 85 C-85 84 -85 84 -85.08984375 81.03515625 C-84.37454312 62.38231674 -78.42168843 45.32032045 -64.625 32.24609375 C-50.15265135 19.86275971 -33.92885626 11.17716896 -16 5 C-13.89457764 4.23260306 -11.79024745 3.46219643 -9.6875 2.6875 C-2.28270042 0 -2.28270042 0 0 0 Z " fill="#040404" transform="translate(218,226)"/>
<path d="M0 0 C0.88171875 -0.020625 1.7634375 -0.04125 2.671875 -0.0625 C18.44252598 -0.15499649 30.64073692 8.33771468 43.625 16.25 C42.05260122 20.27044478 39.2135953 22.75626916 36.0625 25.5625 C35.5252832 26.045979 34.98806641 26.52945801 34.43457031 27.02758789 C27.66678166 33.06565514 21.05303136 38.70778392 12.625 42.25 C11.7690625 42.6109375 10.913125 42.971875 10.03125 43.34375 C-7.4200214 50.20660954 -32.64996052 49.58857412 -50.13671875 43.03515625 C-52.8478872 42.0841181 -55.58170213 41.42109421 -58.375 40.75 C-62.112107 39.83244943 -65.82252181 38.88517012 -69.5 37.75 C-70.20382813 37.5334375 -70.90765625 37.316875 -71.6328125 37.09375 C-73.375 36.25 -73.375 36.25 -75.375 33.25 C-69.51503419 27.58477626 -63.08936756 23.42102045 -56.09375 19.27929688 C-53.2641609 17.58475886 -50.48130132 15.81521498 -47.6875 14.0625 C-32.40861409 4.71218778 -17.93467927 0.10396916 0 0 Z " fill="#050505" transform="translate(298.375,695.75)"/>
<path d="M0 0 C5.48317499 5.0978992 9.51335784 11.07100483 13.41162109 17.43310547 C14.30494141 18.73634766 14.30494141 18.73634766 15.21630859 20.06591797 C16.41162109 22.43310547 16.41162109 22.43310547 16.20654297 24.44921875 C14.93421651 27.6245642 12.68505091 28.18004237 9.69384766 29.54052734 C6.12042879 30.93809039 2.53590827 31.88662265 -1.21337891 32.68310547 C-1.99898193 32.85003906 -2.78458496 33.01697266 -3.59399414 33.18896484 C-23.65509648 37.18122402 -42.75604069 32.23812829 -59.6484375 21.07128906 C-67.99458519 15.28805435 -75.65052783 8.80775764 -83.02587891 1.84326172 C-85.18278574 -0.18541437 -87.37498206 -2.11255528 -89.65087891 -4.00439453 C-92.0462378 -6.09396293 -93.86050891 -7.92426983 -95.58837891 -10.56689453 C-93.83837891 -14.44189453 -93.83837891 -14.44189453 -91.58837891 -15.56689453 C-60.6851112 -20.58318325 -24.92511481 -21.64569607 0 0 Z " fill="#040404" transform="translate(183.58837890625,614.56689453125)"/>
<path d="M0 0 C3.53228736 1.3052323 6.53060718 2.85255309 9.66015625 4.94140625 C10.53027344 5.52027588 11.40039062 6.09914551 12.296875 6.69555664 C13.20953125 7.31164795 14.1221875 7.92773926 15.0625 8.5625 C16.00480469 9.19728271 16.94710937 9.83206543 17.91796875 10.48608398 C20.61857506 12.31461951 23.31140356 14.15386205 26 16 C26.64050293 16.43828125 27.28100586 16.8765625 27.94091797 17.328125 C45.1701795 29.24626386 60.22682823 45.15922248 64.67578125 66.1953125 C66.59868879 77.68043375 68.86831386 91.91216402 62 102 C48.07659019 101.1017155 35.26124259 94.4053579 25.7109375 84.15625 C18.66878902 75.28121356 13.2609991 65.47807089 9 55 C8.55914062 53.96746094 8.11828125 52.93492187 7.6640625 51.87109375 C1.5387174 35.85238823 -0.53159349 17.07224531 0 0 Z " fill="#050505" transform="translate(39,353)"/>
<path d="M0 0 C21.46394541 4.07074827 43.28880418 15.02834448 60 29 C60.73863281 29.58136719 61.47726562 30.16273438 62.23828125 30.76171875 C74.9745731 41.25431152 82.51914108 55.81009846 85 72 C85.21448039 76.34893206 85.19218168 80.65099986 85 85 C64.20110651 86.08989835 48.0188266 80.80390213 32.125 67.25 C15.4191377 51.11253243 2.54623411 23.12396281 0 0 Z " fill="#050505" transform="translate(682,226)"/>
<path d="M0 0 C0.12051247 7.05476183 -0.21600341 13.9772602 -0.875 21 C-0.95363281 21.92039062 -1.03226563 22.84078125 -1.11328125 23.7890625 C-3.01724469 44.58620165 -10.80992302 67.26966063 -25 83 C-25.50660156 83.598125 -26.01320313 84.19625 -26.53515625 84.8125 C-34.61694865 93.70842874 -46.20156114 99.89254327 -58 102 C-60.296875 101.7265625 -60.296875 101.7265625 -62 101 C-67.79155012 90.33135504 -66.18521903 73.23845714 -63.3125 61.875 C-59.85415081 50.7554467 -54.74451494 42.67897707 -47 34 C-46.00033203 32.87464844 -46.00033203 32.87464844 -44.98046875 31.7265625 C-34.02470455 20.12141265 -20.07212698 11.48947479 -6.6472168 3.04638672 C-1.85160989 0 -1.85160989 0 0 0 Z " fill="#050505" transform="translate(861,353)"/>
<path d="M0 0 C0.66 0 1.32 0 2 0 C6.85636999 13.8023147 10.46109834 27.43411686 12 42 C12.2055621 43.33376339 12.41335187 44.66718883 12.625 46 C13.39126846 52.29434804 13.12376196 58.67511221 13 65 C13.00966797 66.52173828 13.00966797 66.52173828 13.01953125 68.07421875 C12.55883518 84.15470542 2.92559601 97.53139668 -7.6796875 108.86328125 C-10 111 -10 111 -12 111 C-12 111.66 -12 112.32 -12 113 C-13.42578125 114.32421875 -13.42578125 114.32421875 -15.3125 115.6875 C-15.92738281 116.14511719 -16.54226562 116.60273437 -17.17578125 117.07421875 C-18.07876953 117.53248047 -18.07876953 117.53248047 -19 118 C-23.95793567 116.34735478 -25.62707409 111.70056477 -27.9921875 107.28125 C-35.96230946 91.14532793 -37.56083817 73.11582657 -32 56 C-31.73316406 55.13503906 -31.46632812 54.27007813 -31.19140625 53.37890625 C-25.40999736 36.0860699 -15.46773843 19.95856706 -4.5 5.5 C-4.0786377 4.94159424 -3.65727539 4.38318848 -3.22314453 3.80786133 C-2.19977338 2.49709938 -1.10585598 1.24196133 0 0 Z " fill="#050505" transform="translate(184,473)"/>
<path d="M0 0 C3.37396191 1.03698607 4.10826019 2.18036191 5.96484375 5.2734375 C6.6358618 6.63406646 7.29273006 8.00173814 7.9375 9.375 C8.28377441 10.09018799 8.63004883 10.80537598 8.98681641 11.54223633 C11.88873771 17.59950709 14.5320329 23.75355613 17 30 C17.34160156 30.81082031 17.68320312 31.62164063 18.03515625 32.45703125 C24.3734052 49.16229468 27.33646089 77.16107548 20 94 C15.12075744 103.00083875 9.14425095 110.66996475 2 118 C-1.28472037 117.75780864 -2.11246235 116.87528928 -4.3671875 114.375 C-5.21505833 113.25896615 -6.05042539 112.13335485 -6.875 111 C-7.53363037 110.11042603 -7.53363037 110.11042603 -8.20556641 109.20288086 C-9.08100129 108.0138694 -9.95139725 106.82112942 -10.81640625 105.62451172 C-11.80038966 104.27397014 -12.81801581 102.9480178 -13.84375 101.62890625 C-24.08749347 87.80507896 -23.75736222 68.91655688 -21.68652344 52.51757812 C-20.87516954 47.86526243 -19.54015758 43.4674136 -18 39 C-17.78569336 38.35450195 -17.57138672 37.70900391 -17.35058594 37.04394531 C-12.99118799 24.01651593 -6.87297754 11.86734122 0 0 Z " fill="#050505" transform="translate(677,526)"/>
<path d="M0 0 C1.05638672 0.00451172 2.11277344 0.00902344 3.20117188 0.01367188 C5.78000908 0.02534082 8.35872294 0.04171115 10.9375 0.0625 C11.4325 1.5475 11.4325 1.5475 11.9375 3.0625 C10.5618527 5.3653457 9.16628239 7.42718322 7.5625 9.5625 C7.10496338 10.18543945 6.64742676 10.80837891 6.17602539 11.45019531 C-0.7224105 20.76242881 -8.17155353 29.57761132 -16.0625 38.0625 C-16.71992187 38.7740625 -17.37734375 39.485625 -18.0546875 40.21875 C-22.25984107 44.60967341 -26.71665663 48.1347929 -31.765625 51.51953125 C-34.04233724 53.00264006 -34.04233724 53.00264006 -35.98046875 54.59765625 C-38.57349521 56.42201821 -41.17772106 57.52004808 -44.125 58.6875 C-45.68927734 59.32558594 -45.68927734 59.32558594 -47.28515625 59.9765625 C-55.87626518 62.44639526 -64.99142772 62.26565189 -73.875 62.3125 C-75.37063477 62.3434375 -75.37063477 62.3434375 -76.89648438 62.375 C-82.40430127 62.40431639 -86.28394255 62.14544029 -91.0625 59.0625 C-91.0625 56.7525 -91.0625 54.4425 -91.0625 52.0625 C-90.4025 52.0625 -89.7425 52.0625 -89.0625 52.0625 C-88.959375 51.20011719 -88.85625 50.33773437 -88.75 49.44921875 C-85.96036082 35.70707574 -75.02564002 23.41908862 -63.73046875 15.76953125 C-62.40982422 14.92455078 -62.40982422 14.92455078 -61.0625 14.0625 C-60.35738281 13.59199219 -59.65226563 13.12148438 -58.92578125 12.63671875 C-42.04365718 2.25019289 -19.34980381 -0.15870502 0 0 Z " fill="#040404" transform="translate(845.0625,524.9375)"/>
<path d="M0 0 C9.02001408 1.26596689 16.23814253 5.51822815 24 10 C24.73524902 10.41991211 25.47049805 10.83982422 26.22802734 11.27246094 C47.05375107 23.25048035 65.50187913 37.98439815 73.5 61.5 C76.00710776 71.11057973 75.34790181 81.14902634 75 91 C66.73385995 91.34982097 59.73761851 91.01987456 52 88 C51.24074219 87.70996094 50.48148438 87.41992188 49.69921875 87.12109375 C43.98749692 84.76340547 38.96624695 81.66027503 34 78 C33.33097656 77.51015625 32.66195312 77.0203125 31.97265625 76.515625 C18.27699469 65.55909575 11.42576563 48.11287976 6 32 C5.62746094 30.96617187 5.25492188 29.93234375 4.87109375 28.8671875 C1.52000921 19.39511829 -0.38723892 10.06821179 0 0 Z " fill="#050505" transform="translate(668,140)"/>
<path d="M0 0 C-4.36087092 24.64164625 -23.6190175 53.10700578 -43.875 67.3125 C-56.0988653 75.07418311 -66.79071518 77.18989359 -81 77.0625 C-81.96550781 77.05798828 -82.93101562 77.05347656 -83.92578125 77.04882812 C-86.28392089 77.03715417 -88.64192602 77.02078021 -91 77 C-91.39073737 59.73312938 -84.22795485 42.8479816 -72.42578125 30.3515625 C-64.78717554 22.94666615 -56.24427069 16.19379762 -46.09277344 12.72290039 C-44.21823632 12.07538471 -42.36150218 11.37685765 -40.5078125 10.671875 C-35.01007995 8.60290432 -29.4443674 6.74056724 -23.875 4.875 C-22.81667969 4.51535156 -21.75835938 4.15570312 -20.66796875 3.78515625 C-19.64058594 3.44097656 -18.61320313 3.09679687 -17.5546875 2.7421875 C-16.16999268 2.27594971 -16.16999268 2.27594971 -14.75732422 1.80029297 C-9.80015654 0.3615117 -5.15073376 -0.12263652 0 0 Z " fill="#050505" transform="translate(580,633)"/>
<path d="M0 0 C0.67578125 2.265625 0.67578125 2.265625 1 5 C-10.25752411 24.99531358 -40.12747422 40.67421695 -60.875 47.3125 C-75.72918307 51.31483191 -93.61438646 49.50052606 -107.3125 42.28125 C-109 41 -109 41 -110 38 C-104.54088586 26.04023021 -96.57148452 16.6396148 -86 9 C-85.01193359 8.27296875 -85.01193359 8.27296875 -84.00390625 7.53125 C-78.45253296 3.74569815 -72.42506558 1.82238224 -66 0 C-65.00871094 -0.30164063 -64.01742187 -0.60328125 -62.99609375 -0.9140625 C-44.33042541 -5.81523185 -18.64566889 -5.17935247 0 0 Z " fill="#050505" transform="translate(810,600)"/>
<path d="M0 0 C0.73204651 0.00337372 1.46409302 0.00674744 2.21832275 0.01022339 C21.84895256 0.14128007 43.25975527 3.4253426 60.0625 14.4375 C58.56652286 18.78764404 55.30602125 20.53604103 51.5625 22.8125 C50.61419312 23.40285034 50.61419312 23.40285034 49.64672852 24.00512695 C48.37420156 24.79486548 47.09892088 25.58018575 45.82080078 26.36083984 C44.32873763 27.27447474 42.84854627 28.20745323 41.37109375 29.14453125 C20.77010941 42.00741933 -3.97831727 51.17495521 -28.3125 46 C-38.5728637 43.5902803 -47.24231256 38.23429163 -55.9375 32.4375 C-54.9314105 23.84000794 -46.70175002 17.90990952 -40.4375 12.625 C-27.68787846 2.57070874 -16.0724997 -0.142918 0 0 Z " fill="#050505" transform="translate(690.9375,654.5625)"/>
<path d="M0 0 C41.77501811 -0.34799131 41.77501811 -0.34799131 55 6 C55.9178125 6.2990625 56.835625 6.598125 57.78125 6.90625 C74.7185183 12.66163243 86.68721855 22.92121982 96 38 C96.44085938 38.68191406 96.88171875 39.36382813 97.3359375 40.06640625 C100.77073619 45.63181315 103.6427182 52.35857861 103 59 C96.6423283 61.80747652 91.41576211 62.48043613 84.5 62.375 C83.53602295 62.36484863 82.5720459 62.35469727 81.57885742 62.34423828 C63.15802916 61.94986655 50.04266445 57.11263 36 45 C35.15308594 44.27554688 34.30617187 43.55109375 33.43359375 42.8046875 C25.0281692 35.4387124 18.11669078 27.26682706 11.3125 18.4375 C10.76553467 17.72916016 10.21856934 17.02082031 9.6550293 16.29101562 C0 3.60767779 0 3.60767779 0 0 Z " fill="#040404" transform="translate(43,525)"/>
<path d="M0 0 C4.28313248 3.58384555 6.16411592 7.96751618 8.4375 12.9375 C8.83291992 13.78997314 9.22833984 14.64244629 9.63574219 15.52075195 C13.94277778 24.90191433 17.56494177 34.41577568 20.6875 44.25 C20.89020508 44.88768311 21.09291016 45.52536621 21.30175781 46.18237305 C26.91756766 64.38219086 26.63945706 80.49203563 19 98 C18.49726562 99.21945312 17.99453125 100.43890625 17.4765625 101.6953125 C14.25356441 108.90868918 9.76193986 114.64962727 4 120 C-6.61287227 115.46866128 -13.4877349 102.07336773 -18 92 C-19.34829561 88.03001848 -20.29210289 84.127293 -21 80 C-21.18304687 79.18144531 -21.36609375 78.36289063 -21.5546875 77.51953125 C-22.04304481 74.75645698 -22.13256152 72.18032522 -22.125 69.375 C-22.12757813 68.43398437 -22.13015625 67.49296875 -22.1328125 66.5234375 C-21.77319424 56.9829765 -20.36947617 48.88797208 -17.125 39.875 C-16.73441406 38.76713135 -16.34382812 37.6592627 -15.94140625 36.51782227 C-4.35596473 4.35596473 -4.35596473 4.35596473 0 0 Z " fill="#060606" transform="translate(775,159)"/>
<path d="M0 0 C3.20348992 2.91414245 5.06566841 5.66846808 6.9375 9.5625 C7.45054687 10.62855469 7.96359375 11.69460938 8.4921875 12.79296875 C8.98976562 13.85128906 9.48734375 14.90960937 10 16 C10.43570313 16.90363281 10.87140625 17.80726563 11.3203125 18.73828125 C21.55711991 40.46735359 28.74115861 64.31050125 21 88 C16.79154931 98.46836022 11.0258316 108.9741684 3 117 C-0.69190676 116.89364878 -2.50310912 116.4329929 -5.30859375 113.98828125 C-19.98419217 95.54280434 -23.43062801 77.13464958 -21.71875 54.23828125 C-19.69990195 37.21395679 -12.84147462 11.70921556 0 0 Z " fill="#040404" transform="translate(222,526)"/>
<path d="M0 0 C12.71699088 4.97868771 24.25415595 30.36545942 30 42 C30.63164063 43.12019531 31.26328125 44.24039063 31.9140625 45.39453125 C36.81460847 54.79328546 37.67868547 63.64526816 37.75 74.1875 C37.76530762 75.43378174 37.78061523 76.68006348 37.79638672 77.96411133 C37.56571142 91.74196576 32.95572932 106.04427068 23 116 C15.36424151 115.22855223 8.88061328 106.03009442 4.171875 100.671875 C-10.61285303 82.48346857 -11.92621118 62.09567683 -9.74951172 39.38671875 C-9.16359678 34.9022508 -8.34211744 30.47700606 -7.41894531 26.05078125 C-6.9994523 23.99731893 -6.63041697 21.94017051 -6.2734375 19.875 C-5.00653055 12.73884598 -3.29656087 6.47944722 0 0 Z " fill="#050505" transform="translate(75,253)"/>
<path d="M0 0 C10.92861291 5.35906796 20.45650552 12.63341439 29.515625 20.68310547 C30.90607151 21.91666936 32.31190013 23.1328333 33.71875 24.34765625 C48.60867689 37.37634228 61.27885127 53.50849621 63.28662109 73.9128418 C63.39918872 76.84377847 63.41012242 79.75477797 63.375 82.6875 C63.38660156 83.66783203 63.39820313 84.64816406 63.41015625 85.65820312 C63.38731086 91.34289845 63.33286391 98.66713609 59 103 C53.09274788 103.53225241 49.34017554 102.23132239 44.25 99.5625 C43.55334229 99.20486572 42.85668457 98.84723145 42.13891602 98.47875977 C35.7523402 95.08205195 30.31566548 90.90401462 25 86 C24.35804688 85.43796875 23.71609375 84.8759375 23.0546875 84.296875 C21.23658407 82.61737138 19.61546198 80.87529153 18 79 C17.35417969 78.25492187 16.70835937 77.50984375 16.04296875 76.7421875 C0.29511742 56.08630603 -0.68740683 24.89940313 0 0 Z " fill="#040404" transform="translate(728,311)"/>
<path d="M0 0 C7.18003744 0.28267864 13.361772 1.5468971 20.12109375 3.97265625 C22.60988747 4.86078752 25.07983261 5.60963216 27.625 6.3125 C39.82360687 9.95828719 51.69332084 14.40560483 62 22 C62.85980469 22.61617187 63.71960938 23.23234375 64.60546875 23.8671875 C75.84057807 32.33176305 83.08800357 42.98187418 87.25 56.3125 C87.64457397 57.56619385 87.64457397 57.56619385 88.04711914 58.84521484 C89.81987499 64.74980688 90.69864555 69.81199655 90 76 C87.62418851 78.37581149 81.62505822 77.18545538 78.4375 77.1875 C77.45974609 77.19974609 76.48199219 77.21199219 75.47460938 77.22460938 C58.96691001 77.25777957 44.48412793 69.73937367 32.453125 58.6171875 C19.27975901 44.56280021 10.35375421 28.50814044 2.8503418 10.91601562 C2.25012379 9.56358642 1.59455933 8.23507882 0.90161133 6.92773438 C-0.22496679 4.5189987 -0.14594043 2.62692778 0 0 Z " fill="#050505" transform="translate(321,633)"/>
<path d="M0 0 C4.3287124 0.8566294 5.97325825 2.76209022 9 6 C9.49113281 6.46019531 9.98226562 6.92039062 10.48828125 7.39453125 C28.20783152 24.09911922 45.48448547 49.44531497 46.52270508 74.20043945 C46.73289218 87.66659822 43.4514527 99.77020142 38 112 C33.69148656 112.60156603 31.39337891 111.25339723 27.93823242 108.75073242 C27.33986572 108.29674072 26.74149902 107.84274902 26.125 107.375 C25.50149658 106.91134033 24.87799316 106.44768066 24.2355957 105.9699707 C23.0142265 105.05566302 21.79731029 104.13536933 20.58544922 103.20849609 C19.35503721 102.2706243 18.10503925 101.35842197 16.84765625 100.45703125 C9.0421108 94.48808473 3.59678091 84.94686728 0 76 C-0.45761719 75.00226563 -0.91523437 74.00453125 -1.38671875 72.9765625 C-8.80286068 53.8683049 -6.55698569 28.60615307 -2 9 C-1.68095703 7.48019531 -1.68095703 7.48019531 -1.35546875 5.9296875 C-0.933953 3.94644073 -0.47455495 1.97122826 0 0 Z " fill="#060606" transform="translate(731,392)"/>
<path d="M0 0 C1.24036359 0.61571291 2.48398638 1.22489541 3.73046875 1.828125 C17.79792593 8.78387036 33.90898259 18.89077911 44 31 C44 32.32 44 33.64 44 35 C36.80435312 36.91373587 29.66880828 38.4808766 22.30078125 39.5703125 C20.04414145 39.7674332 20.04414145 39.7674332 19 41 C10.36452318 42.37974658 1.65538116 42.1118799 -7.0625 42.0625 C-8.61132668 42.05747503 -10.16015493 42.05291388 -11.70898438 42.04882812 C-15.47269576 42.03790138 -19.23633015 42.02069175 -23 42 C-23 41.34 -23 40.68 -23 40 C-24.155 40 -25.31 40 -26.5 40 C-40.30487477 38.52952844 -54.09848225 27.91521372 -63 18 C-68.96191806 10.5057014 -68.96191806 10.5057014 -69.05078125 6.9921875 C-67.39711448 3.85698284 -64.57304197 2.57702915 -61.5625 0.9375 C-60.98306641 0.59912109 -60.40363281 0.26074219 -59.80664062 -0.08789062 C-42.38499788 -9.84627556 -17.28008197 -9.68512378 0 0 Z " fill="#050505" transform="translate(548,731)"/>
<path d="M0 0 C3.26141605 1.08713868 3.79115163 1.68028025 5.875 4.25 C9.17929546 8.16334992 12.72109165 11.73275331 16.375 15.3125 C33.67085591 32.43871639 48.62901377 52.42144541 49.3125 77.625 C49.12338505 88.47547007 48.12913269 103.87086731 40 112 C32.76349233 112.62971037 28.56967494 109.24214922 23 105 C6.76104679 91.15109905 -0.8805353 74.91443708 -2.68359375 53.6484375 C-3.17197056 46.21008299 -3.25451117 38.76396041 -3.3125 31.3125 C-3.32212769 30.61788666 -3.33175537 29.92327332 -3.3416748 29.20761108 C-3.46174643 19.08649913 -2.35002464 9.86156764 0 0 Z " fill="#050505" transform="translate(262,572)"/>
<path d="M0 0 C-2.59621574 27.48121982 -11.5970659 59.08590599 -33.61621094 77.33984375 C-40.63046993 82.83653734 -47.94440717 86.74718201 -56.375 89.625 C-57.09945312 89.87290283 -57.82390625 90.12080566 -58.5703125 90.3762207 C-63.51185827 91.90636404 -68.84894599 93.04210513 -74 92 C-76.55277632 88.17083552 -76.34344398 85.00341606 -76.3125 80.5625 C-76.30831055 79.75498291 -76.30412109 78.94746582 -76.29980469 78.11547852 C-76.11129353 68.04717771 -73.71324317 58.90279265 -69 50 C-68.56429687 49.17242187 -68.12859375 48.34484375 -67.6796875 47.4921875 C-59.45817272 33.3214359 -46.82588098 23.32464377 -33 15 C-31.94683594 14.35417969 -30.89367187 13.70835937 -29.80859375 13.04296875 C-8.01348039 0 -8.01348039 0 0 0 Z " fill="#050505" transform="translate(233,140)"/>
<path d="M0 0 C1.26255615 -0.01369629 2.5251123 -0.02739258 3.82592773 -0.04150391 C14.91048369 0.01225877 24.94178708 1.48751613 34.375 7.5625 C35.32234009 8.15405884 35.32234009 8.15405884 36.28881836 8.75756836 C43.8559756 13.59593641 52.8321787 19.97710448 56.6875 28.375 C56.6328125 30.92578125 56.6328125 30.92578125 55.6875 33.375 C43.67806696 42.90920639 26.71162047 46.73399354 11.75 46.6875 C10.71681641 46.70361328 9.68363281 46.71972656 8.61914062 46.73632812 C2.02522967 46.74050413 -3.20246078 45.78659725 -9.3125 43.375 C-10.35792969 43.05660156 -11.40335938 42.73820313 -12.48046875 42.41015625 C-29.50891628 36.92492541 -45.2085932 27.25378135 -59.3125 16.375 C-58.32486443 13.80392697 -57.70914579 12.60154577 -55.28125 11.21484375 C-54.4665625 10.91707031 -53.651875 10.61929688 -52.8125 10.3125 C-51.92175781 9.98378906 -51.03101563 9.65507813 -50.11328125 9.31640625 C-46.64463249 8.15051455 -43.1595674 7.07582886 -39.63671875 6.0859375 C-37.27890603 5.40634754 -37.27890603 5.40634754 -34.953125 4.390625 C-23.84397561 0.11787523 -11.73377197 0.06471227 0 0 Z " fill="#050505" transform="translate(208.3125,654.625)"/>
<path d="M0 0 C-9.63385754 25.28353024 -28.03608096 53.29514171 -52.94140625 65.43359375 C-55.92818652 66.7459079 -58.92781314 67.90365096 -62 69 C-62.85207031 69.32097656 -63.70414063 69.64195312 -64.58203125 69.97265625 C-75.2742763 73.33844349 -86.9229349 72.26201209 -98 72 C-95.98685792 54.63895824 -89.25695025 37.93125522 -76 26 C-75.26583862 25.32747192 -75.26583862 25.32747192 -74.5168457 24.64135742 C-55.55996825 7.7500603 -25.01368248 0 0 0 Z " fill="#060606" transform="translate(873,449)"/>
<path d="M0 0 C2.0625 0.4375 2.0625 0.4375 4 1 C6.89476705 15.56237202 8.42735 29.80481215 8.5 44.625 C8.50999023 45.32381287 8.51998047 46.02262573 8.53027344 46.74261475 C8.75861981 66.17089463 3.76396075 81.98874587 -9.76757812 96.24633789 C-24.14753584 110.80919858 -24.14753584 110.80919858 -34 112 C-36.57181131 108.07460378 -38.18171735 104.06175776 -39.625 99.625 C-39.94984375 98.67367187 -39.94984375 98.67367187 -40.28125 97.703125 C-42.70476691 90.37273433 -43.16256177 83.3875597 -43.125 75.75 C-43.12886719 74.94820313 -43.13273437 74.14640625 -43.13671875 73.3203125 C-43.13110903 69.96570065 -43.06784228 67.20352683 -42 64 C-41.34 64 -40.68 64 -40 64 C-40.0721875 63.19949219 -40.144375 62.39898437 -40.21875 61.57421875 C-39.92885487 56.83753942 -38.36697762 53.13848649 -36.5 48.8125 C-36.13688721 47.96534424 -35.77377441 47.11818848 -35.3996582 46.24536133 C-32.38367385 39.44001319 -28.72506463 33.7562952 -24 28 C-23.15359568 26.89755754 -22.31137745 25.79189263 -21.47265625 24.68359375 C-14.84784845 15.98680485 -7.73514565 7.73514565 0 0 Z " fill="#050505" transform="translate(166,392)"/>
<path d="M0 0 C0.99 0 1.98 0 3 0 C13.16174702 23.28039583 17.89242603 58.67380387 8.48046875 82.90234375 C2.99760782 94.37439842 -4.91028211 106.04863796 -15 114 C-18.5 115 -18.5 115 -21 115 C-32.30587753 99.26501581 -37.77287387 81.24418125 -34.65869141 61.87744141 C-33.08582563 54.22502009 -30.48924462 46.97848924 -27 40 C-26.67773438 39.27296875 -26.35546875 38.5459375 -26.0234375 37.796875 C-20.01239338 24.73690865 -10.19250852 10.19250852 0 0 Z " fill="#040404" transform="translate(823,254)"/>
<path d="M0 0 C2 2 2 2 2.4140625 4.2734375 C1.02945522 13.39094579 -12.55735893 22.38262845 -19.65234375 27.6484375 C-32.93279593 37.14679082 -47.04141929 37.40922318 -62.8125 37.375 C-64.02948578 37.37567978 -64.02948578 37.37567978 -65.27105713 37.37637329 C-81.10146296 37.35045886 -97.44632046 36.84532906 -112 30 C-102.31741573 12.26426311 -74.48014604 -3.09821297 -55.71484375 -8.6796875 C-36.34071922 -13.16244849 -16.99205312 -10.19523187 0 0 Z " fill="#050505" transform="translate(419,735)"/>
<path d="M0 0 C3.16214586 0.23294805 6.32350215 0.47293361 9.484375 0.72265625 C11.55654001 0.88612705 13.62929975 1.04274146 15.703125 1.18359375 C21.15965125 1.61483534 26.16907838 2.72061785 31.421875 4.25390625 C33.55233284 4.87044784 35.71159277 5.38648869 37.875 5.875 C58.24273897 11.00833259 76.79087784 22.48725915 88.09082031 40.41845703 C92.80631228 48.5688832 96.88911549 59.51610145 96 69 C92.99125013 72.00874987 90.1198719 71.32011133 86.0012207 71.38085938 C63.76587612 71.34078667 48.29474465 65.21642483 32.39794922 49.40576172 C31.93662598 48.94186035 31.47530273 48.47795898 31 48 C30.13503906 47.13503906 29.27007812 46.27007812 28.37890625 45.37890625 C19.2552262 35.79975387 0 13.58058633 0 0 Z " fill="#060606" transform="translate(28,450)"/>
<path d="M0 0 C2.79233987 2.79233987 2.70857333 5.711995 3.11328125 9.4765625 C3.19757889 10.23143951 3.28187653 10.98631653 3.36872864 11.7640686 C4.16526102 19.52899683 4.26941384 27.25983114 4.20581055 35.05908203 C4.18734214 37.39496665 4.1853035 39.73045545 4.18554688 42.06640625 C4.13718928 64.60030374 4.13718928 64.60030374 0.4375 73.9375 C0.17211426 74.6171582 -0.09327148 75.29681641 -0.36669922 75.99707031 C-6.59713585 91.25572168 -17.81849374 103.11784889 -31.52734375 111.98828125 C-34.61358336 113.25105544 -35.9102857 113.24481266 -39 112 C-47.26351534 103.11987804 -46.61266872 89.6055293 -46.5625 78.125 C-46.56168427 77.41967133 -46.56086853 76.71434265 -46.56002808 75.98764038 C-46.50313888 65.29505021 -45.83884231 56.33493924 -40 47 C-39.31164062 45.88496094 -38.62328125 44.76992188 -37.9140625 43.62109375 C-35.76302 40.29392444 -33.41354133 37.1424632 -31 34 C-30.00226562 32.68515625 -30.00226562 32.68515625 -28.984375 31.34375 C-20.18428954 20.19249666 -10.08226813 9.98818787 0 0 Z " fill="#040404" transform="translate(637,572)"/>
<path d="M0 0 C1.33396971 27.17345699 -2.6484156 59.15793019 -20 81 C-28.27892014 90.00673729 -43.28765701 101.14065032 -55.72265625 102.3671875 C-59 102 -59 102 -60.67773438 100.890625 C-63.4951702 96.86214955 -62.47541124 91.02821191 -62.44604492 86.24316406 C-62.43766646 84.16626405 -62.46606457 82.09224356 -62.49804688 80.015625 C-62.60407373 59.70874766 -54.35293328 45.43656907 -41 31 C-40.48373047 30.43845215 -39.96746094 29.8769043 -39.43554688 29.29833984 C-31.12445395 20.35944945 -21.95554009 13.02889082 -12 6 C-10.55947266 4.96939453 -10.55947266 4.96939453 -9.08984375 3.91796875 C-3.44686768 0 -3.44686768 0 0 0 Z " fill="#050505" transform="translate(172,312)"/>
<path d="M0 0 C5.29112204 2.74731337 9.09375244 6.28125733 11 12 C11.53631763 18.43581151 10.81220813 21.74533474 7 27 C1.42535901 31.15670095 -4.31929621 30.73201666 -11 30 C-16.03050573 27.88189233 -18.16523637 24.86984184 -20.3046875 20.015625 C-21.31183476 17.09602956 -21.53094615 15.05294037 -21 12 C-16.51708196 3.55142369 -9.81864918 -1.34144733 0 0 Z " fill="#050505" transform="translate(455,711)"/>
<path d="M0 0 C1.93166016 -0.00483398 1.93166016 -0.00483398 3.90234375 -0.00976562 C15.12673796 0.05420761 15.12673796 0.05420761 20.25 2.3125 C20.745 3.7975 20.745 3.7975 21.25 5.3125 C20.38246094 5.15007813 19.51492188 4.98765625 18.62109375 4.8203125 C12.55713284 3.95729971 6.42325959 4.16845348 0.3125 4.1875 C-1.5427832 4.18169922 -1.5427832 4.18169922 -3.43554688 4.17578125 C-10.9646794 4.17534366 -10.9646794 4.17534366 -18.44140625 4.9453125 C-21.75 5.3125 -21.75 5.3125 -24.75 3.3125 C-16.49260171 0.11994533 -8.77937835 -0.11118767 0 0 Z " fill="#2B2B2B" transform="translate(518.75,724.6875)"/>
<path d="M0 0 C4.94644038 5.16150301 4.15688969 13.19421237 4.16796875 19.9375 C4.17129715 20.66187256 4.17462555 21.38624512 4.17805481 22.13256836 C4.18307829 23.65184908 4.18546457 25.17114067 4.18530273 26.69042969 C4.1874946 28.99432718 4.20571359 31.29774902 4.22460938 33.6015625 C4.22754336 35.08854005 4.22952812 36.57551985 4.23046875 38.0625 C4.23765427 38.73982178 4.24483978 39.41714355 4.25224304 40.11499023 C4.22897473 45.06325871 3.32952651 49.2733801 2 54 C1.34 53.67 0.68 53.34 0 53 C0.0721875 52.30519531 0.144375 51.61039062 0.21875 50.89453125 C0.87628853 43.68900481 1.10959293 36.545477 1.125 29.3125 C1.12951172 28.44665283 1.13402344 27.58080566 1.13867188 26.6887207 C1.12680226 21.47153223 0.79283121 16.37423755 0.22265625 11.18920898 C-0.1581188 7.44533854 -0.06061975 3.75842439 0 0 Z " fill="#0F0F0F" transform="translate(170,407)"/>
<path d="M0 0 C0 0.33 0 0.66 0 1 C-1.33792603 1.08302368 -1.33792603 1.08302368 -2.70288086 1.16772461 C-6.05211495 1.37660344 -9.40121413 1.58744401 -12.75024414 1.79956055 C-14.19225301 1.89050094 -15.63430963 1.98068772 -17.07641602 2.07006836 C-19.16436082 2.19961502 -21.25214053 2.33146245 -23.33984375 2.46484375 C-24.35248795 2.52918106 -24.35248795 2.52918106 -25.3855896 2.59481812 C-29.02614276 2.83601871 -32.63510214 3.16682079 -36.25390625 3.62890625 C-39.4802442 3.9485122 -41.02805629 3.88053026 -44 3 C-44.33 4.32 -44.66 5.64 -45 7 C-42.69 8.98 -40.38 10.96 -38 13 C-38.99 13.66 -39.98 14.32 -41 15 C-43.64 12.03 -46.28 9.06 -49 6 C-47 2 -47 2 -45 1 C-29.96781098 -1.49397681 -15.15573799 -0.89788121 0 0 Z " fill="#1B1B1B" transform="translate(137,598)"/>
<path d="M0 0 C0.33 0.66 0.66 1.32 1 2 C1.66 2.33 2.32 2.66 3 3 C2.72285156 3.59941406 2.44570312 4.19882813 2.16015625 4.81640625 C-2.61881383 16.77233495 -2.10300943 29.84128678 -1.953125 42.546875 C-1.99703728 45.78174618 -2.23359638 47.35039457 -4 50 C-6.47097739 32.58163476 -5.10231421 16.80119181 0 0 Z " fill="#1C1C1C" transform="translate(106,197)"/>
<path d="M0 0 C0.495 1.485 0.495 1.485 1 3 C0.34 3.66 -0.32 4.32 -1 5 C-1.495 4.505 -1.495 4.505 -2 4 C-4.42500423 3.9362492 -6.82214822 3.93363767 -9.24609375 3.97265625 C-10.73762789 3.98530277 -12.22916447 3.99766371 -13.72070312 4.00976562 C-16.08218909 4.03460784 -18.44355007 4.06258548 -20.80493164 4.09594727 C-23.07699401 4.12608324 -25.34889571 4.14390503 -27.62109375 4.16015625 C-28.32946884 4.17361588 -29.03784393 4.1870755 -29.76768494 4.20094299 C-31.5130526 4.20991472 -33.25830395 4.11350615 -35 4 C-35.66 3.34 -36.32 2.68 -37 2 C-24.6755128 -0.39227481 -12.50209796 -0.21003783 0 0 Z " fill="#1B1C1B" transform="translate(856,525)"/>
<path d="M0 0 C1.32 0.33 2.64 0.66 4 1 C4 2.65 4 4.3 4 6 C13.9 6.33 23.8 6.66 34 7 C34 7.33 34 7.66 34 8 C32.35 8.33 30.7 8.66 29 9 C29 9.33 29 9.66 29 10 C25.29181703 10.08756305 21.58390237 10.14058015 17.875 10.1875 C16.30492187 10.22520508 16.30492187 10.22520508 14.703125 10.26367188 C8.94528536 10.31833491 4.86485368 10.20676341 0 7 C0 4.69 0 2.38 0 0 Z " fill="#252525" transform="translate(754,577)"/>
<path d="M0 0 C0.66 0 1.32 0 2 0 C6.12637334 12.96860191 6.13311357 25.79616422 3 39 C2.34 38.67 1.68 38.34 1 38 C1.0407666 37.18845459 1.0815332 36.37690918 1.12353516 35.54077148 C1.30266146 31.84014882 1.4639877 28.13895322 1.625 24.4375 C1.68945312 23.16068359 1.75390625 21.88386719 1.8203125 20.56835938 C2.08391896 14.22532894 2.195728 8.9753972 0 3 C0 2.01 0 1.02 0 0 Z " fill="#262626" transform="translate(241,572)"/>
<path d="M0 0 C0.99 0.33 1.98 0.66 3 1 C2.5153125 1.46897705 2.030625 1.9379541 1.53125 2.42114258 C-0.65360637 4.54376205 -2.8268529 6.6778969 -5 8.8125 C-5.763125 9.55048828 -6.52625 10.28847656 -7.3125 11.04882812 C-8.034375 11.76103516 -8.75625 12.47324219 -9.5 13.20703125 C-10.1703125 13.8616333 -10.840625 14.51623535 -11.53125 15.19067383 C-13.31512472 16.99979194 -13.31512472 16.99979194 -13 20 C-11.56249809 21.68798827 -11.56249809 21.68798827 -10 23 C-10.99 23.33 -11.98 23.66 -13 24 C-15.1875 22.5625 -15.1875 22.5625 -17 21 C-16.1212771 13.04897508 -8.76257611 7.468232 -3.125 2.3125 C-2.09375 1.549375 -1.0625 0.78625 0 0 Z " fill="#070707" transform="translate(652,666)"/>
<path d="M0 0 C0.66 0 1.32 0 2 0 C4.57235828 4.88952228 4.29653652 9.68365417 4.25 15.0625 C4.25773438 15.96033203 4.26546875 16.85816406 4.2734375 17.78320312 C4.26957031 19.08354492 4.26957031 19.08354492 4.265625 20.41015625 C4.26336914 21.19527588 4.26111328 21.98039551 4.25878906 22.78930664 C3.97235858 25.23612552 3.21905917 26.87633113 2 29 C0.63160637 26.26321275 0.78365182 23.95735576 0.68359375 20.8984375 C0.64169922 19.68671875 0.59980469 18.475 0.55664062 17.2265625 C0.51732422 15.95554687 0.47800781 14.68453125 0.4375 13.375 C0.37272461 11.456875 0.37272461 11.456875 0.30664062 9.5 C0.20030114 6.33344652 0.09827167 3.16681247 0 0 Z " fill="#1F1F1F" transform="translate(773,454)"/>
<path d="M0 0 C6.45306122 -0.25306122 6.45306122 -0.25306122 9.09375 0.96875 C13.43330996 2.50859386 17.7386658 2.4698452 22.3125 2.625 C23.24384766 2.66367187 24.17519531 2.70234375 25.13476562 2.7421875 C27.42298407 2.83606313 29.71120295 2.92174509 32 3 C32.33 2.01 32.66 1.02 33 0 C33 1.65 33 3.3 33 5 C24.75968672 6.20144029 17.80654123 6.12775568 9.75 4.1875 C9.01144775 4.00993164 8.27289551 3.83236328 7.51196289 3.64941406 C2.29053852 2.29053852 2.29053852 2.29053852 0 0 Z " fill="#1A1A1A" transform="translate(733,305)"/>
<path d="M0 0 C2.49330912 1.84987451 2.97801897 2.88004636 3.546875 5.984375 C4.19673845 18.03184354 3.69785167 29.9608719 3 42 C2.67 42 2.34 42 2 42 C1.71256409 37.14378553 1.42782424 32.28742299 1.14550781 27.4309082 C1.04923147 25.78112592 0.95223737 24.13138536 0.85449219 22.48168945 C0.71357421 20.1011822 0.57529625 17.7205335 0.4375 15.33984375 C0.39375244 14.61039047 0.35000488 13.88093719 0.30493164 13.12937927 C0.05417458 8.74444179 -0.04031822 4.39216656 0 0 Z " fill="#1D1D1D" transform="translate(637,579)"/>
<path d="M0 0 C0.66 0 1.32 0 2 0 C3.61949011 2.57213134 4.04408751 3.67669159 3.625 6.75 C3.315625 7.86375 3.315625 7.86375 3 9 C2.01 7.68 1.02 6.36 0 5 C-4.23982103 10.51778127 -8.19648587 16.17334006 -12 22 C-12.66 21.01 -13.32 20.02 -14 19 C-11.85563972 16.01977049 -9.70926581 13.04099707 -7.5625 10.0625 C-6.95083984 9.21236328 -6.33917969 8.36222656 -5.70898438 7.48632812 C-5.12568359 6.67744141 -4.54238281 5.86855469 -3.94140625 5.03515625 C-3.13231812 3.91185913 -3.13231812 3.91185913 -2.30688477 2.76586914 C-1 1 -1 1 0 0 Z " fill="#161616" transform="translate(184,473)"/>
<path d="M0 0 C3.25068154 0.11014706 6.50023328 0.24071212 9.75 0.375 C10.67039062 0.4059375 11.59078125 0.436875 12.5390625 0.46875 C13.87324219 0.52675781 13.87324219 0.52675781 15.234375 0.5859375 C16.05131836 0.6173584 16.86826172 0.6487793 17.70996094 0.68115234 C21.32757091 1.1848409 23.43467636 2.43467636 26 5 C17.09 4.34 8.18 3.68 -1 3 C-0.67 2.01 -0.34 1.02 0 0 Z " fill="#1B1B1B" transform="translate(59,525)"/>
<path d="M0 0 C0.33 0.66 0.66 1.32 1 2 C1.66 2.33 2.32 2.66 3 3 C2.73445313 3.49886719 2.46890625 3.99773438 2.1953125 4.51171875 C-1.10548092 11.22172582 -2.0649033 17.5971511 -3 25 C2.94 25 8.88 25 15 25 C15 25.33 15 25.66 15 26 C8.73 26 2.46 26 -4 26 C-5.12516824 18.12382234 -5.12516824 18.12382234 -3.6875 13 C-3.40648437 11.97390625 -3.12546875 10.9478125 -2.8359375 9.890625 C-2.56007813 8.93671875 -2.28421875 7.9828125 -2 7 C-1.78601563 6.23171875 -1.57203125 5.4634375 -1.3515625 4.671875 C-0.91374601 3.11096402 -0.45934651 1.55471127 0 0 Z " fill="#202020" transform="translate(494,683)"/>
<path d="M0 0 C0.33 0 0.66 0 1 0 C1 7.59 1 15.18 1 23 C1.66 23 2.32 23 3 23 C3.66 28.61 4.32 34.22 5 40 C4.505 38.515 4.505 38.515 4 37 C3.34 37 2.68 37 2 37 C-0.18751681 29.08532302 -0.23376006 21.61541991 -0.125 13.4375 C-0.11597656 12.14263672 -0.10695313 10.84777344 -0.09765625 9.51367188 C-0.07425094 6.34225229 -0.04146228 3.17122627 0 0 Z " fill="#292929" transform="translate(703,516)"/>
<path d="M0 0 C0.70703125 1.6328125 0.70703125 1.6328125 1 4 C-0.36328125 6.8046875 -0.36328125 6.8046875 -2.3125 9.875 C-4.83777698 13.88061175 -6.53479465 17.50924075 -8 22 C-10.125 24.375 -10.125 24.375 -12 26 C-9.50535307 16.46760928 -5.71092712 8.03760114 0 0 Z " fill="#161616" transform="translate(139,424)"/>
<path d="M0 0 C0.99 0.33 1.98 0.66 3 1 C3.33 11.23 3.66 21.46 4 32 C3.67 32 3.34 32 3 32 C2.34 28.37 1.68 24.74 1 21 C0.67 21 0.34 21 0 21 C0 14.07 0 7.14 0 0 Z " fill="#424242" transform="translate(728,311)"/>
<path d="M0 0 C0.77214844 0.00902344 1.54429687 0.01804687 2.33984375 0.02734375 C2.90832031 0.03894531 3.47679687 0.05054688 4.0625 0.0625 C4.0625 0.7225 4.0625 1.3825 4.0625 2.0625 C-7.16990531 3.89173424 -17.60879179 4.10003021 -28.9375 3.0625 C-28.9375 2.7325 -28.9375 2.4025 -28.9375 2.0625 C-27.79152344 2.00191406 -26.64554688 1.94132813 -25.46484375 1.87890625 C-23.93488703 1.79443011 -22.40493959 1.70978573 -20.875 1.625 C-19.74674805 1.56602539 -19.74674805 1.56602539 -18.59570312 1.50585938 C-12.37099933 1.15555137 -6.23162592 -0.09587117 0 0 Z " fill="#101010" transform="translate(640.9375,738.9375)"/>
<path d="M0 0 C3.15302705 1.04427178 3.92527862 1.85586639 5.484375 4.86328125 C5.90203125 6.00152344 6.3196875 7.13976562 6.75 8.3125 C7.17796875 9.44300781 7.6059375 10.57351563 8.046875 11.73828125 C8.9167946 14.71526022 9.20729409 16.93089588 9 20 C8.34 20.33 7.68 20.66 7 21 C4.6361527 18.6361527 4.77025009 18.08167502 4.625 14.875 C4.25138983 10.51151519 2.98804976 7.41311257 0.83984375 3.62890625 C0 2 0 2 0 0 Z " fill="#181818" transform="translate(137,564)"/>
<path d="M0 0 C1.85625 0.0309375 1.85625 0.0309375 3.75 0.0625 C-2.14864623 3.99493082 -8.21637582 5.51145473 -15.25 5.0625 C-15.25 5.7225 -15.25 6.3825 -15.25 7.0625 C-17.125 7.6875 -17.125 7.6875 -19.25 8.0625 C-19.91 7.4025 -20.57 6.7425 -21.25 6.0625 C-19.16780951 5.24707569 -17.08420239 4.43526811 -15 3.625 C-13.83984375 3.17253906 -12.6796875 2.72007812 -11.484375 2.25390625 C-7.46763536 0.77431013 -4.27531321 -0.07125522 0 0 Z " fill="#131313" transform="translate(284.25,696.9375)"/>
<path d="M0 0 C-0.57691478 3.16854747 -1.41646887 4.78226459 -3.72265625 7.015625 C-4.52993164 7.80839844 -4.52993164 7.80839844 -5.35351562 8.6171875 C-5.91748047 9.15601563 -6.48144531 9.69484375 -7.0625 10.25 C-7.63033203 10.80429687 -8.19816406 11.35859375 -8.78320312 11.9296875 C-10.18212469 13.29334214 -11.59019114 14.64760417 -13 16 C-13.33 15.01 -13.66 14.02 -14 13 C-12.56354149 11.39490066 -11.12579294 9.79095576 -9.6875 8.1875 C-8.88699219 7.29417969 -8.08648437 6.40085937 -7.26171875 5.48046875 C-2.26456693 0 -2.26456693 0 0 0 Z " fill="#131313" transform="translate(515,658)"/>
<path d="M0 0 C0.99 0 1.98 0 3 0 C3 4.62 3 9.24 3 14 C2.67 14 2.34 14 2 14 C1.67 16.31 1.34 18.62 1 21 C0.67 21 0.34 21 0 21 C0 14 0 7 0 0 Z M-1 2 C-1.66 3.32 -2.32 4.64 -3 6 C-3.99 5.67 -4.98 5.34 -6 5 C-3.25 2 -3.25 2 -1 2 Z " fill="#131313" transform="translate(169,312)"/>
<path d="M0 0 C1.25495545 3.76486635 0.5818409 4.44085797 -1 8 C-1.74961223 10.07339553 -2.48704915 12.15068861 -3.21875 14.23046875 C-4 16 -4 16 -6 18 C-6.59834554 19.52056618 -7.13506656 21.06612088 -7.625 22.625 C-7.88539062 23.44226563 -8.14578125 24.25953125 -8.4140625 25.1015625 C-8.60742188 25.72804687 -8.80078125 26.35453125 -9 27 C-9.66 26.34 -10.32 25.68 -11 25 C-9.92055257 22.33170298 -8.83656061 19.6653997 -7.75 17 C-7.44964844 16.25621094 -7.14929688 15.51242188 -6.83984375 14.74609375 C-4.77854603 9.70249294 -2.48957189 4.84695413 0 0 Z " fill="#161616" transform="translate(119,167)"/>
<path d="M0 0 C0.66 0.33 1.32 0.66 2 1 C1.12787305 8.12237007 -0.2843858 13.86115915 -4 20 C-4.70670728 22.69254991 -4.70670728 22.69254991 -5 25 C-5.33 25 -5.66 25 -6 25 C-6.31987952 19.77530114 -5.19500906 15.69203809 -3.5625 10.8125 C-3.33240234 10.10158203 -3.10230469 9.39066406 -2.86523438 8.65820312 C-1.9267563 5.76660256 -0.96135379 2.88406138 0 0 Z " fill="#303030" transform="translate(711,483)"/>
<path d="M0 0 C0.66 0.66 1.32 1.32 2 2 C1.53878342 6.87571811 0.14993183 11.63666217 -1.0625 16.375 C-1.24876953 17.11105469 -1.43503906 17.84710937 -1.62695312 18.60546875 C-2.08247457 20.40419444 -2.5409355 22.20217529 -3 24 C-4.63717445 21.49608614 -5.02055128 20.23291453 -4.75390625 17.2109375 C-3.91700838 13.64653311 -2.96525232 10.13924985 -1.9375 6.625 C-1.57527344 5.37976563 -1.21304688 4.13453125 -0.83984375 2.8515625 C-0.56269531 1.91054688 -0.28554687 0.96953125 0 0 Z " fill="#1F1F1F" transform="translate(207,554)"/>
<path d="M0 0 C0.33 0 0.66 0 1 0 C1.33 2.31 1.66 4.62 2 7 C2.33 7 2.66 7 3 7 C3 11.95 3 16.9 3 22 C2.34 22 1.68 22 1 22 C1 24.31 1 26.62 1 29 C0.67 29 0.34 29 0 29 C0 19.43 0 9.86 0 0 Z " fill="#131313" transform="translate(194,516)"/>
<path d="M0 0 C6.6 0 13.2 0 20 0 C19.67 0.99 19.34 1.98 19 3 C14.38 3 9.76 3 5 3 C5 2.67 5 2.34 5 2 C3.35 1.67 1.7 1.34 0 1 C0 0.67 0 0.34 0 0 Z " fill="#0F0F0F" transform="translate(723,646)"/>
<path d="M0 0 C7.74513747 1.34249049 13.28776671 9.22751422 18 15 C15 15 15 15 12.44140625 12.734375 C11.47406502 11.74707487 10.5146989 10.7519121 9.5625 9.75 C8.84610352 9.01330078 8.84610352 9.01330078 8.11523438 8.26171875 C6.7388276 6.8456624 5.36928528 5.42294378 4 4 C2.66999029 2.66335131 1.33806982 1.32857996 0 0 Z " fill="#202020" transform="translate(756,333)"/>
<path d="M0 0 C4.29 0.33 8.58 0.66 13 1 C13 1.66 13 2.32 13 3 C14.65 3 16.3 3 18 3 C18 3.33 18 3.66 18 4 C11.07 3.505 11.07 3.505 4 3 C4.33 3.99 4.66 4.98 5 6 C4.01 6 3.02 6 2 6 C1.34 4.02 0.68 2.04 0 0 Z " fill="#101010" transform="translate(28,450)"/>
<path d="M0 0 C3.98489712 1.32829904 5.07354184 3.81587408 7.125 7.25 C7.66447266 8.11044922 7.66447266 8.11044922 8.21484375 8.98828125 C10.22579563 12.29467779 11.52237228 15.15003111 12 19 C9 18 9 18 7.125 14.5 C6.79242188 13.78714844 6.45984375 13.07429688 6.1171875 12.33984375 C4.55322795 9.06427811 2.74859879 5.93805149 0.953125 2.78515625 C0 1 0 1 0 0 Z " fill="#1C1C1C" transform="translate(93,278)"/>
<path d="M0 0 C4.69947931 0.51043034 7.88524863 2.67691454 11.625 5.375 C12.19734375 5.77460937 12.7696875 6.17421875 13.359375 6.5859375 C16.12402547 8.54048109 18.71716858 10.49050447 21 13 C17.52032277 13 16.60367203 12.31535443 13.76953125 10.41015625 C12.96708984 9.87326172 12.16464844 9.33636719 11.33789062 8.78320312 C10.50451172 8.21537109 9.67113281 7.64753906 8.8125 7.0625 C7.96751953 6.49853516 7.12253906 5.93457031 6.25195312 5.35351562 C1.68312144 2.27444019 1.68312144 2.27444019 0 1 C0 0.67 0 0.34 0 0 Z " fill="#121212" transform="translate(559,739)"/>
<path d="M0 0 C0.33 0 0.66 0 1 0 C1.26554688 1.08539062 1.53109375 2.17078125 1.8046875 3.2890625 C2.16133082 4.73440647 2.5181088 6.17971722 2.875 7.625 C3.04902344 8.33785156 3.22304687 9.05070313 3.40234375 9.78515625 C4.42854338 13.92796216 5.58790729 17.96726678 7 22 C6.34 22.33 5.68 22.66 5 23 C1.14713149 15.11537979 -0.77944772 8.79909866 0 0 Z " fill="#151515" transform="translate(202,603)"/>
<path d="M0 0 C0.33 0 0.66 0 1 0 C1.66 8.25 2.32 16.5 3 25 C2.67 24.01 2.34 23.02 2 22 C1.34 22 0.68 22 0 22 C-0.94450945 14.48751716 -0.94450945 7.51248284 0 0 Z " fill="#171717" transform="translate(797,427)"/>
<path d="M0 0 C0 0.33 0 0.66 0 1 C-10.395 1.99 -10.395 1.99 -21 3 C-21.33 2.34 -21.66 1.68 -22 1 C-14.38600077 -1.19386419 -7.83703499 -0.89635331 0 0 Z " fill="#1C1C1C" transform="translate(771,598)"/>
<path d="M0 0 C1.65 0 3.3 0 5 0 C5.33 0.99 5.66 1.98 6 3 C5.34 3 4.68 3 4 3 C4.37253906 3.47050781 4.74507812 3.94101562 5.12890625 4.42578125 C5.60199219 5.04839844 6.07507812 5.67101562 6.5625 6.3125 C7.03816406 6.92738281 7.51382813 7.54226563 8.00390625 8.17578125 C8.33261719 8.77777344 8.66132812 9.37976563 9 10 C8.67 10.99 8.34 11.98 8 13 C4.32117927 9.71533863 2.24849899 6.33639092 0 2 C0 1.34 0 0.68 0 0 Z " fill="#1A1A1A" transform="translate(43,525)"/>
<path d="M0 0 C1.8871875 0.0309375 1.8871875 0.0309375 3.8125 0.0625 C3.8125 0.7225 3.8125 1.3825 3.8125 2.0625 C1.5025 1.7325 -0.8075 1.4025 -3.1875 1.0625 C-3.1875 1.7225 -3.1875 2.3825 -3.1875 3.0625 C-3.88875 3.289375 -4.59 3.51625 -5.3125 3.75 C-8.88093613 5.37906867 -11.25264511 7.46890731 -14.1875 10.0625 C-14.1875 7.0625 -14.1875 7.0625 -12.76171875 5.4921875 C-12.13910156 4.97914063 -11.51648438 4.46609375 -10.875 3.9375 C-10.26011719 3.41929687 -9.64523437 2.90109375 -9.01171875 2.3671875 C-6.04935256 0.24849305 -3.52983895 -0.05786621 0 0 Z " fill="#1B1B1B" transform="translate(451.1875,710.9375)"/>
<path d="M0 0 C0.99 0.33 1.98 0.66 3 1 C2.22914063 1.75925781 1.45828125 2.51851562 0.6640625 3.30078125 C-0.34909096 4.30455366 -1.36210448 5.30846732 -2.375 6.3125 C-2.88289062 6.81201172 -3.39078125 7.31152344 -3.9140625 7.82617188 C-6.22854133 10.12542387 -8.18347483 12.27521225 -10 15 C-10.66 15 -11.32 15 -12 15 C-10.42921185 11.31766057 -8.13566869 8.74453885 -5.4375 5.8125 C-4.63183594 4.93207031 -3.82617188 4.05164063 -2.99609375 3.14453125 C-1 1 -1 1 0 0 Z " fill="#181818" transform="translate(630,579)"/>
<path d="M0 0 C0.99 0.33 1.98 0.66 3 1 C2.46890625 1.51949219 1.9378125 2.03898437 1.390625 2.57421875 C-2.31050353 6.22807009 -5.87158441 9.82877921 -9 14 C-9.99 13.67 -10.98 13.34 -12 13 C-8.04 8.71 -4.08 4.42 0 0 Z " fill="#1B1B1B" transform="translate(134,340)"/>
<path d="M0 0 C-1.98 0.99 -1.98 0.99 -4 2 C-3.82374165 4.37948772 -3.30280227 5.70225849 -1.59765625 7.37890625 C-0.09350908 8.62115486 1.45129851 9.81376056 3 11 C2.01 11.66 1.02 12.32 0 13 C-2.64 10.03 -5.28 7.06 -8 4 C-5.55533545 -0.8893291 -4.94253549 -1.48276065 0 0 Z " fill="#262626" transform="translate(96,600)"/>
<path d="M0 0 C5.29012124 4.40843437 10.18808428 9.07559794 15 14 C14.67 14.99 14.34 15.98 14 17 C10.60580737 13.71529745 7.38092265 10.29302848 4.1875 6.8125 C3.39730469 5.95269531 2.60710937 5.09289062 1.79296875 4.20703125 C0 2 0 2 0 0 Z " fill="#161616" transform="translate(270,580)"/>
<path d="M0 0 C5.42917198 0.38313976 8.44851255 2.53835632 12.375 6.0625 C12.92027344 6.53494141 13.46554688 7.00738281 14.02734375 7.49414062 C15.36083303 8.65217079 16.68174219 9.82466011 18 11 C17.34 11.66 16.68 12.32 16 13 C15.43152344 12.46890625 14.86304687 11.9378125 14.27734375 11.390625 C9.74016662 7.23975177 5.47991683 3.7982554 0 1 C0 0.67 0 0.34 0 0 Z " fill="#121212" transform="translate(112,539)"/>
<path d="M0 0 C-3.51658358 1.9692868 -7.12112296 2.94810114 -11 4 C-12.31307684 4.37297513 -13.62560297 4.747896 -14.9375 5.125 C-15.948125 5.41375 -16.95875 5.7025 -18 6 C-18.66 5.34 -19.32 4.68 -20 4 C-17.79731661 3.12797877 -15.58986134 2.27754298 -13.375 1.4375 C-12.14523437 0.96183594 -10.91546875 0.48617187 -9.6484375 -0.00390625 C-5.88893079 -1.03032403 -3.73079436 -0.95852717 0 0 Z " fill="#181818" transform="translate(811,531)"/>
<path d="M0 0 C0.66 0.33 1.32 0.66 2 1 C1.71125 1.680625 1.4225 2.36125 1.125 3.0625 C-0.12804383 6.33433667 -1.06837838 9.62287164 -2 13 C-2.37364775 14.3128856 -2.74859984 15.62540085 -3.125 16.9375 C-3.41375 17.948125 -3.7025 18.95875 -4 20 C-4.33 20 -4.66 20 -5 20 C-5.64257562 12.77102428 -3.21421316 6.42842633 0 0 Z " fill="#161616" transform="translate(142,272)"/>
<path d="M0 0 C2 2 2 2 2.08203125 4.42578125 C1.19018405 13.97759403 1.19018405 13.97759403 -2 18 C-3.51553092 14.02549507 -2.49888623 10.79518851 -1.5625 6.75 C-1.27503906 5.48671875 -0.98757812 4.2234375 -0.69140625 2.921875 C-0.46324219 1.95765625 -0.23507813 0.9934375 0 0 Z " fill="#161616" transform="translate(70,267)"/>
<path d="M0 0 C0.99 0.33 1.98 0.66 3 1 C2.45730469 1.53109375 1.91460937 2.0621875 1.35546875 2.609375 C0.28232422 3.66898438 0.28232422 3.66898438 -0.8125 4.75 C-1.87404297 5.79414063 -1.87404297 5.79414063 -2.95703125 6.859375 C-4.82275879 8.81428645 -6.43169642 10.80338553 -8 13 C-8.99 12.67 -9.98 12.34 -11 12 C-7.37 8.04 -3.74 4.08 0 0 Z " fill="#0A0A0A" transform="translate(179,171)"/>
<path d="M0 0 C1.77155654 0.11429397 3.54226229 0.24183037 5.3125 0.375 C6.79169922 0.47941406 6.79169922 0.47941406 8.30078125 0.5859375 C11 1 11 1 14 3 C10.37 3 6.74 3 3 3 C2.67 4.65 2.34 6.3 2 8 C-0.1519437 4.77208445 -0.20086443 3.71599191 0 0 Z " fill="#2B2B2B" transform="translate(321,633)"/>
<path d="M0 0 C0.33 0 0.66 0 1 0 C1 5.61 1 11.22 1 17 C0.01 17.33 -0.98 17.66 -2 18 C-2.05382106 15.37472811 -2.09358313 12.75055287 -2.125 10.125 C-2.14175781 9.37863281 -2.15851562 8.63226562 -2.17578125 7.86328125 C-2.1933959 5.90805539 -2.10320189 3.95257979 -2 2 C-1.34 1.34 -0.68 0.68 0 0 Z " fill="#181818" transform="translate(699,591)"/>
<path d="M0 0 C1.32963842 3.98891525 0.38405007 7.18462836 -0.4375 11.1875 C-0.58509766 11.93708984 -0.73269531 12.68667969 -0.88476562 13.45898438 C-1.24972791 15.30734174 -1.62397411 17.15386161 -2 19 C-2.33 19 -2.66 19 -3 19 C-4.0748291 12.72532201 -3.88341198 8.09339169 -2 2 C-1.34 2 -0.68 2 0 2 C0 1.34 0 0.68 0 0 Z " fill="#141414" transform="translate(660,566)"/>
<path d="M0 0 C4.62 0 9.24 0 14 0 C14.33 0.99 14.66 1.98 15 3 C14.34 3.66 13.68 4.32 13 5 C12.01 4.34 11.02 3.68 10 3 C7.49103314 2.54398739 7.49103314 2.54398739 4.8125 2.375 C3.91144531 2.30023437 3.01039063 2.22546875 2.08203125 2.1484375 C1.39496094 2.09945312 0.70789063 2.05046875 0 2 C0 1.34 0 0.68 0 0 Z " fill="#111111" transform="translate(842,525)"/>
<path d="M0 0 C3.32597281 3.53105961 3.46770164 6.50235535 3.6875 11.25 C3.75324219 12.51328125 3.81898438 13.7765625 3.88671875 15.078125 C3.92410156 16.04234375 3.96148437 17.0065625 4 18 C3.34 18 2.68 18 2 18 C0.3722167 11.85221129 -0.20190089 6.35987804 0 0 Z " fill="#212121" transform="translate(170,407)"/>
<path d="M0 0 C4.31730413 0.47409648 6.33647461 3.03396703 9.25 6.0625 C10.14203125 6.98160156 11.0340625 7.90070313 11.953125 8.84765625 C12.62859375 9.55792969 13.3040625 10.26820313 14 11 C13.34 11.66 12.68 12.32 12 13 C8.13595981 10.25449776 6.71048291 8.33322337 5 4 C2.99983534 2.79117904 2.99983534 2.79117904 1 2 C0.67 1.34 0.34 0.68 0 0 Z " fill="#101010" transform="translate(76,380)"/>
<path d="M0 0 C-2.09836004 1.03271642 -4.20390891 2.05083717 -6.3125 3.0625 C-7.48425781 3.63097656 -8.65601563 4.19945312 -9.86328125 4.78515625 C-13 6 -13 6 -16 5 C-11.45736412 0.88323623 -5.64265934 -3.76177289 0 0 Z " fill="#1D1D1D" transform="translate(197,236)"/>
<path d="M0 0 C0.33 0 0.66 0 1 0 C1.19747891 3.89539457 1.38123029 7.79132016 1.5625 11.6875 C1.61857422 12.79029297 1.67464844 13.89308594 1.73242188 15.02929688 C1.78076172 16.09599609 1.82910156 17.16269531 1.87890625 18.26171875 C1.9260376 19.24100342 1.97316895 20.22028809 2.02172852 21.22924805 C2.00032994 23.95792705 1.62794508 26.35079063 1 29 C0.34 28.67 -0.32 28.34 -1 28 C-0.67 18.76 -0.34 9.52 0 0 Z " fill="#151515" transform="translate(243,582)"/>
<path d="M0 0 C0.99 0.33 1.98 0.66 3 1 C1.73147606 2.60599349 0.460089 4.20972575 -0.8125 5.8125 C-1.87404297 7.15248047 -1.87404297 7.15248047 -2.95703125 8.51953125 C-4.56411377 10.47076911 -6.17040423 12.26274976 -8 14 C-8.33 13.34 -8.66 12.68 -9 12 C-6.03 8.04 -3.06 4.08 0 0 Z " fill="#181818" transform="translate(813,388)"/>
<path d="M0 0 C3.16115776 1.36983503 3.9927092 1.9890638 6 5 C3 5 3 5 1 4 C0.34 6.64 -0.32 9.28 -1 12 C-2.1875 10.5 -2.1875 10.5 -3 8 C-2.27101296 5.21175762 -1.1843275 2.62334908 0 0 Z " fill="#101010" transform="translate(75,253)"/>
<path d="M0 0 C2.05137315 3.48216283 2.56818592 6.77275657 3.125 10.75 C3.29257812 11.92046875 3.46015625 13.0909375 3.6328125 14.296875 C3.75398437 15.18890625 3.87515625 16.0809375 4 17 C3.34 17.33 2.68 17.66 2 18 C-0.09745927 12.40677527 -2.19494716 5.85319244 0 0 Z " fill="#0F0F0F" transform="translate(670,148)"/>
<path d="M0 0 C3.85025879 0.60355408 6.86101159 1.76772603 10.3125 3.5625 C11.19550781 4.01753906 12.07851562 4.47257813 12.98828125 4.94140625 C13.65214844 5.29074219 14.31601563 5.64007812 15 6 C13.32421875 7.171875 13.32421875 7.171875 11 8 C8.45703125 6.953125 8.45703125 6.953125 5.8125 5.25 C4.93207031 4.69828125 4.05164063 4.1465625 3.14453125 3.578125 C1 2 1 2 0 0 Z " fill="#1C1C1C" transform="translate(124,634)"/>
<path d="M0 0 C2.125 0.375 2.125 0.375 4 1 C3.46890625 1.45890625 2.9378125 1.9178125 2.390625 2.390625 C-1.18324699 5.49493717 -4.71854059 8.58181312 -8 12 C-8.66 11.67 -9.32 11.34 -10 11 C-7.64119167 7.64800922 -4.93234873 4.8571603 -2 2 C-1.34 1.34 -0.68 0.68 0 0 Z " fill="#151515" transform="translate(828,374)"/>
<path d="M0 0 C0.76600016 2.29800047 1.04879175 3.75952638 0.5625 6.15625 C-0.13723432 9.69379574 -0.3528287 13.22058999 -0.5625 16.8125 C-0.60568359 17.50537109 -0.64886719 18.19824219 -0.69335938 18.91210938 C-0.79861453 20.60788686 -0.89972863 22.30392052 -1 24 C-1.33 24 -1.66 24 -2 24 C-2.19555932 21.27119539 -2.38170447 18.54228931 -2.5625 15.8125 C-2.61857422 15.04357422 -2.67464844 14.27464844 -2.73242188 13.48242188 C-2.99141557 9.45938647 -3.06573607 5.93927628 -2 2 C-1.34 2 -0.68 2 0 2 C0 1.34 0 0.68 0 0 Z " fill="#161616" transform="translate(791,311)"/>
<path d="M0 0 C0.99 0 1.98 0 3 0 C2.88487847 1.72985242 2.75744323 3.45888751 2.625 5.1875 C2.52058594 6.63189453 2.52058594 6.63189453 2.4140625 8.10546875 C1.99784147 11.01508938 1.20125904 13.32890774 0 16 C-0.33 16 -0.66 16 -1 16 C-0.67 10.72 -0.34 5.44 0 0 Z " fill="#1E1E1E" transform="translate(134,294)"/>
<path d="M0 0 C0.66 0.33 1.32 0.66 2 1 C1.67 1.598125 1.34 2.19625 1 2.8125 C-0.20787988 5.05386471 -0.20787988 5.05386471 0 8 C1.43750191 9.68798827 1.43750191 9.68798827 3 11 C2.01 11.33 1.02 11.66 0 12 C-2.1875 10.5625 -2.1875 10.5625 -4 9 C-3.46930939 5.17902761 -2.50298434 2.93828597 0 0 Z " fill="#232323" transform="translate(639,678)"/>
<path d="M0 0 C0.33 0 0.66 0 1 0 C2.04474629 8.08972465 1.89231726 15.0553953 0 23 C-2.22498457 19.66252315 -2.19131202 19.11311043 -1.7578125 15.33203125 C-1.66113281 14.43935547 -1.56445312 13.54667969 -1.46484375 12.62695312 C-1.29662109 11.23379883 -1.29662109 11.23379883 -1.125 9.8125 C-1.02058594 8.87212891 -0.91617187 7.93175781 -0.80859375 6.96289062 C-0.54924871 4.6405737 -0.27934796 2.31998163 0 0 Z " fill="#141414" transform="translate(308,650)"/>
<path d="M0 0 C4.7190991 0.46765847 6.91832317 2.34934594 10.3125 5.5625 C11.19550781 6.38878906 12.07851562 7.21507812 12.98828125 8.06640625 C13.65214844 8.70449219 14.31601563 9.34257813 15 10 C14.34 10.66 13.68 11.32 13 12 C12.56429687 11.54109375 12.12859375 11.0821875 11.6796875 10.609375 C8.00836276 6.82679799 4.44365055 3.81792474 0 1 C0 0.67 0 0.34 0 0 Z " fill="#1E1E1E" transform="translate(174,610)"/>
<path d="M0 0 C0.66 0 1.32 0 2 0 C1.33333333 2 0.66666667 4 0 6 C-0.24105469 6.75796875 -0.48210937 7.5159375 -0.73046875 8.296875 C-0.98441406 9.08578125 -1.23835937 9.8746875 -1.5 10.6875 C-1.7371875 11.43386719 -1.974375 12.18023438 -2.21875 12.94921875 C-3 15 -3 15 -5 18 C-6.23847816 14.28456553 -5.56730001 13.15583076 -4.1875 9.5625 C-3.83042969 8.61503906 -3.47335938 7.66757812 -3.10546875 6.69140625 C-2.16273496 4.39619924 -1.14826105 2.19780282 0 0 Z " fill="#161616" transform="translate(158,514)"/>
<path d="M0 0 C-1.44781793 3.44428265 -3.27694609 5.36130962 -6.125 7.75 C-7.21167969 8.67039062 -7.21167969 8.67039062 -8.3203125 9.609375 C-8.87460938 10.06828125 -9.42890625 10.5271875 -10 11 C-10.66 10.34 -11.32 9.68 -12 9 C-10.38050958 7.49405319 -8.75424026 5.99539332 -7.125 4.5 C-6.22007812 3.6646875 -5.31515625 2.829375 -4.3828125 1.96875 C-2 0 -2 0 0 0 Z " fill="#1B1B1B" transform="translate(151,326)"/>
<path d="M0 0 C0.66 0.66 1.32 1.32 2 2 C-2.455 7.94 -2.455 7.94 -7 14 C-7.66 13.34 -8.32 12.68 -9 12 C-6.03 8.04 -3.06 4.08 0 0 Z " fill="#181818" transform="translate(818,260)"/>
<path d="M0 0 C0.99 0.66 1.98 1.32 3 2 C2 5 2 5 0 6 C-0.33 6.99 -0.66 7.98 -1 9 C-1.66 9 -2.32 9 -3 9 C-3.33 10.98 -3.66 12.96 -4 15 C-4.66 14.01 -5.32 13.02 -6 12 C-4.02 8.04 -2.04 4.08 0 0 Z " fill="#1F1F1F" transform="translate(775,159)"/>
<path d="M0 0 C0.78503906 0.13277344 1.57007813 0.26554688 2.37890625 0.40234375 C7.91187987 1.33242643 13.44073841 2.24191887 19 3 C19 3.33 19 3.66 19 4 C13.13338987 5.27535003 7.70578057 5.04448444 2 3 C1.34 2.01 0.68 1.02 0 0 Z " fill="#0D0D0D" transform="translate(317,766)"/>
<path d="M0 0 C5.28 0.33 10.56 0.66 16 1 C15.67 1.66 15.34 2.32 15 3 C12.87506859 3.02693575 10.75004088 3.04636628 8.625 3.0625 C7.44164062 3.07410156 6.25828125 3.08570313 5.0390625 3.09765625 C2 3 2 3 0 2 C0 1.34 0 0.68 0 0 Z " fill="#131313" transform="translate(442,738)"/>
<path d="M0 0 C1.258125 0.12375 2.51625 0.2475 3.8125 0.375 C4.87404297 0.47941406 4.87404297 0.47941406 5.95703125 0.5859375 C8 1 8 1 11 3 C11.33 3.66 11.66 4.32 12 5 C6.06 4.01 6.06 4.01 0 3 C0 2.01 0 1.02 0 0 Z " fill="#1C1C1C" transform="translate(389,725)"/>
<path d="M0 0 C5.91260345 -0.25706972 11.23918159 0.7017874 17 2 C17 2.33 17 2.66 17 3 C10.43592388 4.31281522 6.16645379 3.52653315 0 1 C0 0.67 0 0.34 0 0 Z " fill="#1E1E1E" transform="translate(99,582)"/>
<path d="M0 0 C4.14107131 2.12344542 6.05264074 4.14077527 8.3125 8.1875 C8.82425781 9.08855469 9.33601562 9.98960937 9.86328125 10.91796875 C10.23839844 11.60503906 10.61351562 12.29210937 11 13 C10.34 13.66 9.68 14.32 9 15 C8.60167969 14.31292969 8.20335937 13.62585938 7.79296875 12.91796875 C7.26316406 12.01691406 6.73335937 11.11585938 6.1875 10.1875 C5.66542969 9.29417969 5.14335938 8.40085937 4.60546875 7.48046875 C3.13059348 5.01198722 3.13059348 5.01198722 1.30078125 3.30078125 C0.87152344 2.87152344 0.44226563 2.44226563 0 2 C0 1.34 0 0.68 0 0 Z " fill="#191919" transform="translate(722,484)"/>
<path d="M0 0 C1.65 0.33 3.3 0.66 5 1 C5 1.99 5 2.98 5 4 C1.36576791 6.32590854 -1.77088331 6.16265833 -6 6 C-3.64046906 3.64046906 -2.22104383 3.50858587 1 3 C0.67 2.01 0.34 1.02 0 0 Z " fill="#1F1F1F" transform="translate(672,727)"/>
<path d="M0 0 C2.82928932 2.55071314 4.67893264 5.46621272 6.6875 8.6875 C7.31011719 9.68136719 7.93273437 10.67523437 8.57421875 11.69921875 C9.04472656 12.45847656 9.51523437 13.21773437 10 14 C9.01 14.495 9.01 14.495 8 15 C6.65511867 13.258859 5.32444855 11.50673385 4 9.75 C3.2575 8.77546875 2.515 7.8009375 1.75 6.796875 C0 4 0 4 0 0 Z " fill="#121212" transform="translate(338,668)"/>
<path d="M0 0 C0.33 0 0.66 0 1 0 C1.33719047 2.56204544 1.66987153 5.12454318 2 7.6875 C2.09539062 8.40873047 2.19078125 9.12996094 2.2890625 9.87304688 C2.76683735 13.60992871 3.11919794 17.22291531 3 21 C2.67 20.01 2.34 19.02 2 18 C1.34 18 0.68 18 0 18 C0 12.06 0 6.12 0 0 Z " fill="#111111" transform="translate(261,620)"/>
<path d="M0 0 C3.63 0.33 7.26 0.66 11 1 C11 1.99 11 2.98 11 4 C9.54119891 3.85892253 8.08296449 3.71197585 6.625 3.5625 C5.40683594 3.44068359 5.40683594 3.44068359 4.1640625 3.31640625 C2 3 2 3 0 2 C0 1.34 0 0.68 0 0 Z " fill="#1F1F1F" transform="translate(90,451)"/>
<path d="M0 0 C3 3 3 3 3.2487793 5.4519043 C3.16237183 6.87369995 3.16237183 6.87369995 3.07421875 8.32421875 C3.01943359 9.35224609 2.96464844 10.38027344 2.90820312 11.43945312 C2.83537109 12.51130859 2.76253906 13.58316406 2.6875 14.6875 C2.62626953 15.77095703 2.56503906 16.85441406 2.50195312 17.97070312 C2.3486115 20.64828378 2.18075343 23.32415282 2 26 C1.67 26 1.34 26 1 26 C0.67 17.42 0.34 8.84 0 0 Z " fill="#191919" transform="translate(101,420)"/>
<path d="M0 0 C0.33 0 0.66 0 1 0 C1.3383344 2.37438249 1.67079002 4.74934959 2 7.125 C2.14308594 8.12273437 2.14308594 8.12273437 2.2890625 9.140625 C2.83611453 13.12628981 3.10022182 16.97859938 3 21 C2.67 21 2.34 21 2 21 C2 19.35 2 17.7 2 16 C1.34 16 0.68 16 0 16 C-0.91397824 10.31302429 -0.91397824 5.68697571 0 0 Z " fill="#111111" transform="translate(41,363)"/>
<path d="M0 0 C2.12472576 -0.05386629 4.24983652 -0.09273071 6.375 -0.125 C7.55835938 -0.14820313 8.74171875 -0.17140625 9.9609375 -0.1953125 C13 0 13 0 15 2 C9.47032059 2.71033431 4.50016964 3.30267176 -1 2 C-0.67 1.34 -0.34 0.68 0 0 Z " fill="#151515" transform="translate(139,308)"/>
<path d="M0 0 C4.41510774 0.48713098 6.30446645 1.85053197 9.3125 5.0625 C10.00988281 5.79597656 10.70726562 6.52945313 11.42578125 7.28515625 C11.94527344 7.85105469 12.46476563 8.41695312 13 9 C12.34 9.66 11.68 10.32 11 11 C7.33333333 7.33333333 3.66666667 3.66666667 0 0 Z " fill="#212121" transform="translate(714,167)"/>
<path d="M0 0 C2.86237248 2.86237248 3.90730493 4.06081905 4.09765625 8.04296875 C4.06510417 10.02864583 4.03255208 12.01432292 4 14 C3.67 13.01 3.34 12.02 3 11 C2.34 11 1.68 11 1 11 C0.67 7.37 0.34 3.74 0 0 Z " fill="#202020" transform="translate(462,717)"/>
<path d="M0 0 C0 0.66 0 1.32 0 2 C0.66 2.33 1.32 2.66 2 3 C1.27554688 2.86722656 0.55109375 2.73445312 -0.1953125 2.59765625 C-5.12491105 1.69718291 -10.05322123 0.80218034 -15 0 C-15 -0.33 -15 -0.66 -15 -1 C-9.53891111 -2.4002792 -5.30723432 -1.42705634 0 0 Z " fill="#101010" transform="translate(627,699)"/>
<path d="M0 0 C0.66 0 1.32 0 2 0 C1.67 4.95 1.34 9.9 1 15 C0.01 14.67 -0.98 14.34 -2 14 C-1.85795259 12.41632253 -1.71119847 10.83306682 -1.5625 9.25 C-1.48128906 8.36828125 -1.40007813 7.4865625 -1.31640625 6.578125 C-1.03761535 4.30649548 -0.61209423 2.20148177 0 0 Z " fill="#272727" transform="translate(639,623)"/>
<path d="M0 0 C3.91939465 3.80411834 7.49102731 7.81576108 11 12 C7.23254152 11.44988438 5.69390636 9.97622408 3.25 7.125 C2.63640625 6.42632812 2.0228125 5.72765625 1.390625 5.0078125 C0 3 0 3 0 0 Z " fill="#202020" transform="translate(708,283)"/>
<path d="M0 0 C2.72426311 2.35277269 3.8141763 4.62496331 5 8 C4.34 8.66 3.68 9.32 3 10 C2.67 8.35 2.34 6.7 2 5 C0.35 5.33 -1.3 5.66 -3 6 C-1.125 1.125 -1.125 1.125 0 0 Z " fill="#212121" transform="translate(124,159)"/>
<path d="M0 0 C0 0.66 0 1.32 0 2 C-4.95484183 3.38489368 -9.74589148 2.89120615 -14.8125 2.5625 C-16.13797852 2.48418945 -16.13797852 2.48418945 -17.49023438 2.40429688 C-19.66050408 2.27525381 -21.83030693 2.13840044 -24 2 C-24 1.67 -24 1.34 -24 1 C-20.75008318 0.83168475 -17.50005436 0.66563638 -14.25 0.5 C-13.32960938 0.45230469 -12.40921875 0.40460937 -11.4609375 0.35546875 C-10.12675781 0.28779297 -10.12675781 0.28779297 -8.765625 0.21875 C-7.94868164 0.17685547 -7.13173828 0.13496094 -6.29003906 0.09179688 C-4.19481876 0.00780937 -2.09690296 0 0 0 Z " fill="#1B1B1B" transform="translate(141,584)"/>
<path d="M0 0 C0.33 0 0.66 0 1 0 C1 1.98 1 3.96 1 6 C0.34 6 -0.32 6 -1 6 C-0.79375 6.5775 -0.5875 7.155 -0.375 7.75 C0.08661261 10.51967567 -0.57055055 11.64561267 -2 14 C-2.99 14 -3.98 14 -5 14 C-3.45730076 9.27934033 -1.92205381 4.58335908 0 0 Z " fill="#222222" transform="translate(665,549)"/>
<path d="M0 0 C3.25669165 3.08065427 6.10679924 5.89806503 8 10 C7.6875 12.3125 7.6875 12.3125 7 14 C3 7.25 3 7.25 3 5 C2.34 5 1.68 5 1 5 C0.67 3.35 0.34 1.7 0 0 Z " fill="#161616" transform="translate(756,418)"/>
<path d="M0 0 C3.16115776 1.36983503 3.9927092 1.9890638 6 5 C5.75 7.625 5.75 7.625 5 10 C4.01 10.495 4.01 10.495 3 11 C2.34 10.34 1.68 9.68 1 9 C1.66 9 2.32 9 3 9 C2.67 6.69 2.34 4.38 2 2 C1.34 2 0.68 2 0 2 C0 1.34 0 0.68 0 0 Z " fill="#242424" transform="translate(259,678)"/>
<path d="M0 0 C1.60031344 3.20062687 0.03173691 5.72271806 -1 9 C0.32 9.66 1.64 10.32 3 11 C2.01 11.33 1.02 11.66 0 12 C-2.1875 10.5625 -2.1875 10.5625 -4 9 C-2.94124926 5.59687262 -1.99097846 2.98646769 0 0 Z " fill="#191919" transform="translate(704,631)"/>
<path d="M0 0 C0.99 0.33 1.98 0.66 3 1 C2.34 4.63 1.68 8.26 1 12 C0.01 12 -0.98 12 -2 12 C-1.44687265 7.97007218 -0.8441938 3.97977076 0 0 Z " fill="#282828" transform="translate(262,572)"/>
<path d="M0 0 C4.00972202 3.67557852 6.45335415 7.18966896 9 12 C8.34 12.66 7.68 13.32 7 14 C6.66226563 13.37351562 6.32453125 12.74703125 5.9765625 12.1015625 C5.53054687 11.28429687 5.08453125 10.46703125 4.625 9.625 C4.18414062 8.81289063 3.74328125 8.00078125 3.2890625 7.1640625 C2.0556107 4.89185698 2.0556107 4.89185698 0 3 C0 2.01 0 1.02 0 0 Z " fill="#181818" transform="translate(107,480)"/>
<path d="M0 0 C2.30143236 3.45214853 2.13833854 4.23479324 1.625 8.1875 C1.51414062 9.08855469 1.40328125 9.98960937 1.2890625 10.91796875 C1.19367187 11.60503906 1.09828125 12.29210937 1 13 C0.01 12.67 -0.98 12.34 -2 12 C-1.34 8.04 -0.68 4.08 0 0 Z " fill="#131313" transform="translate(730,398)"/>
<path d="M0 0 C0 0.99 0 1.98 0 3 C-6.5 6 -6.5 6 -11 6 C-3.8 0 -3.8 0 0 0 Z " fill="#1D1D1D" transform="translate(494,729)"/>
<path d="M0 0 C3.7602985 0.58107632 6.53035032 1.65199496 9.8125 3.5625 C10.60269531 4.01753906 11.39289063 4.47257813 12.20703125 4.94140625 C12.79871094 5.29074219 13.39039063 5.64007812 14 6 C14 6.66 14 7.32 14 8 C8.76481294 6.56032356 4.36973991 4.18303389 0 1 C0 0.67 0 0.34 0 0 Z " fill="#151515" transform="translate(328,706)"/>
<path d="M0 0 C6.6 0 13.2 0 20 0 C20.33 0.66 20.66 1.32 21 2 C16.35930898 3.30891285 12.36772241 2.73588321 7.6875 2.0625 C6.94693359 1.96259766 6.20636719 1.86269531 5.44335938 1.75976562 C3.62790363 1.51380065 1.81379929 1.25789626 0 1 C0 0.67 0 0.34 0 0 Z " fill="#171717" transform="translate(667,699)"/>
<path d="M0 0 C1.98 0.99 3.96 1.98 6 3 C5.34 4.32 4.68 5.64 4 7 C2.68 6.67 1.36 6.34 0 6 C-0.38218767 4.34385343 -0.71395102 2.67542976 -1 1 C-0.67 0.67 -0.34 0.34 0 0 Z " fill="#141414" transform="translate(745,666)"/>
<path d="M0 0 C5.7097955 0.41778991 8.60957142 2.57546571 13 6 C12.34 6.66 11.68 7.32 11 8 C9.16399255 6.85845641 7.33125195 5.71165684 5.5 4.5625 C4.4790625 3.92441406 3.458125 3.28632812 2.40625 2.62890625 C1.6121875 2.09136719 0.818125 1.55382812 0 1 C0 0.67 0 0.34 0 0 Z " fill="#191919" transform="translate(238,662)"/>
<path d="M0 0 C4.00972202 3.67557852 6.45335415 7.18966896 9 12 C8.34 12.66 7.68 13.32 7 14 C3 7.25 3 7.25 3 5 C2.34 5 1.68 5 1 5 C0.67 3.35 0.34 1.7 0 0 Z " fill="#1B1A1B" transform="translate(292,604)"/>
<path d="M0 0 C4.00972202 3.67557852 6.45335415 7.18966896 9 12 C8.01 12 7.02 12 6 12 C4.39453125 9.8828125 4.39453125 9.8828125 2.8125 7.125 C2.01779297 5.76761719 2.01779297 5.76761719 1.20703125 4.3828125 C0 2 0 2 0 0 Z " fill="#1B1B1B" transform="translate(774,349)"/>
<path d="M0 0 C-1.38188453 3.21043882 -2.92421903 5.04936365 -5.625 7.25 C-6.57246094 8.03117187 -6.57246094 8.03117187 -7.5390625 8.828125 C-8.02117187 9.21484375 -8.50328125 9.6015625 -9 10 C-9.66 9.67 -10.32 9.34 -11 9 C-9.54782324 7.49403892 -8.08807139 5.99537896 -6.625 4.5 C-5.40683594 3.24703125 -5.40683594 3.24703125 -4.1640625 1.96875 C-2 0 -2 0 0 0 Z " fill="#232323" transform="translate(158,256)"/>
<path d="M0 0 C0 0.66 0 1.32 0 2 C-5.02125926 2.77916092 -8.97703996 3.13016601 -14 2 C-14 1.67 -14 1.34 -14 1 C-9.32798795 -0.20568053 -4.78503708 -0.09382426 0 0 Z " fill="#292929" transform="translate(645,739)"/>
<path d="M0 0 C0.99 0.33 1.98 0.66 3 1 C3.80078125 2.9609375 3.80078125 2.9609375 4.3125 5.375 C4.49425781 6.16648437 4.67601562 6.95796875 4.86328125 7.7734375 C5 10 5 10 3 13 C2.01 8.71 1.02 4.42 0 0 Z " fill="#181818" transform="translate(405,688)"/>
<path d="M0 0 C0.99 0.33 1.98 0.66 3 1 C0 4 -3 7 -6 10 C-6.33 9.01 -6.66 8.02 -7 7 C-2.88888889 1.44444444 -2.88888889 1.44444444 0 0 Z " fill="#161616" transform="translate(797,475)"/>
<path d="M0 0 C3.39192363 0.59283621 5.2107757 1.76743189 7.75 4.0625 C8.67039062 4.88427734 8.67039062 4.88427734 9.609375 5.72265625 C10.29773438 6.35494141 10.29773438 6.35494141 11 7 C10.67 7.99 10.34 8.98 10 10 C6.66666667 6.66666667 3.33333333 3.33333333 0 0 Z " fill="#0D0D0D" transform="translate(96,472)"/>
<path d="M0 0 C0.33 0.99 0.66 1.98 1 3 C4.3 2.67 7.6 2.34 11 2 C9 5 9 5 5.5 5.8125 C4.345 5.874375 3.19 5.93625 2 6 C1.34 5.34 0.68 4.68 0 4 C0 2.68 0 1.36 0 0 Z " fill="#0B0B0B" transform="translate(798,449)"/>
<path d="M0 0 C0.65234375 1.734375 0.65234375 1.734375 1 4 C0.00390625 6.140625 0.00390625 6.140625 -1.4375 8.25 C-1.91058594 8.95640625 -2.38367188 9.6628125 -2.87109375 10.390625 C-3.24363281 10.92171875 -3.61617187 11.4528125 -4 12 C-4.66 11.34 -5.32 10.68 -6 10 C-5.18957164 8.51969728 -4.37659652 7.04078858 -3.5625 5.5625 C-2.88380859 4.32693359 -2.88380859 4.32693359 -2.19140625 3.06640625 C-1 1 -1 1 0 0 Z " fill="#1C1C1C" transform="translate(139,424)"/>
<path d="M0 0 C1.62433191 2.50076998 2.07333427 3.58982529 1.5390625 6.578125 C1.23742187 7.45984375 0.93578125 8.3415625 0.625 9.25 C0.32851563 10.14203125 0.03203125 11.0340625 -0.2734375 11.953125 C-0.51320313 12.62859375 -0.75296875 13.3040625 -1 14 C-1.66 13.67 -2.32 13.34 -3 13 C-2.68991116 11.39536551 -2.37683713 9.79130769 -2.0625 8.1875 C-1.88847656 7.29417969 -1.71445312 6.40085937 -1.53515625 5.48046875 C-1 3 -1 3 0 0 Z " fill="#121212" transform="translate(832,324)"/>
<path d="M0 0 C0 0.66 0 1.32 0 2 C-3.96 2.99 -7.92 3.98 -12 5 C-12.33 4.34 -12.66 3.68 -13 3 C-11.58603098 2.49242138 -10.16868271 1.99425075 -8.75 1.5 C-7.96109375 1.2215625 -7.1721875 0.943125 -6.359375 0.65625 C-4 0 -4 0 0 0 Z " fill="#1E1E1E" transform="translate(217,227)"/>
<path d="M0 0 C4.29 0.66 8.58 1.32 13 2 C13 2.33 13 2.66 13 3 C11.58566794 3.2236337 10.16832382 3.42826476 8.75 3.625 C7.96109375 3.74101563 7.1721875 3.85703125 6.359375 3.9765625 C3.67847541 4.00319395 2.27305911 3.36592084 0 2 C0 1.34 0 0.68 0 0 Z " fill="#282828" transform="translate(596,738)"/>
<path d="M0 0 C3.7910119 1.44950455 7.3874638 3.15172566 11 5 C9.02 5.99 9.02 5.99 7 7 C5.82780457 6.21654285 4.66236332 5.42297164 3.5 4.625 C2.8503125 4.18414063 2.200625 3.74328125 1.53125 3.2890625 C1.0259375 2.86367188 0.520625 2.43828125 0 2 C0 1.34 0 0.68 0 0 Z " fill="#1E1E1E" transform="translate(579,730)"/>
<path d="M0 0 C4.19469571 0.59924224 8.00999834 1.57499941 12 3 C10.5 4.1875 10.5 4.1875 8 5 C5.21175762 4.27101296 2.62334908 3.1843275 0 2 C0 1.34 0 0.68 0 0 Z " fill="#101010" transform="translate(194,694)"/>
<path d="M0 0 C0.33 0 0.66 0 1 0 C1 1.65 1 3.3 1 5 C1.66 5 2.32 5 3 5 C3 7.64 3 10.28 3 13 C2.01 13.495 2.01 13.495 1 14 C-0.20568053 9.32798795 -0.09382426 4.78503708 0 0 Z " fill="#222222" transform="translate(591,657)"/>
<path d="M0 0 C2.912575 0.08566397 4.56798024 0.57910955 6.66796875 2.625 C8.16091772 4.38391375 9.60436262 6.16313019 11 8 C7.24026115 8 6.54322371 7.03457593 3.8125 4.5625 C3.09707031 3.92441406 2.38164062 3.28632812 1.64453125 2.62890625 C1.10183594 2.09136719 0.55914062 1.55382812 0 1 C0 0.67 0 0.34 0 0 Z " fill="#232323" transform="translate(385,659)"/>
<path d="M0 0 C1.08667969 0.01804687 2.17335937 0.03609375 3.29296875 0.0546875 C4.54013672 0.08949219 4.54013672 0.08949219 5.8125 0.125 C5.8125 0.455 5.8125 0.785 5.8125 1.125 C0.23817486 2.78751802 -3.4942505 3.31109365 -9.1875 2.125 C-5.66070901 -0.22619399 -4.15870515 -0.08943452 0 0 Z " fill="#272727" transform="translate(182.1875,657.875)"/>
<path d="M0 0 C-0.66 1.65 -1.32 3.3 -2 5 C-2.66 5 -3.32 5 -4 5 C-4 4.34 -4 3.68 -4 3 C-5.32 2.67 -6.64 2.34 -8 2 C-8 1.67 -8 1.34 -8 1 C-2.25 0 -2.25 0 0 0 Z M-13 3 C-11.02 3 -9.04 3 -7 3 C-7 3.33 -7 3.66 -7 4 C-8.98 4 -10.96 4 -13 4 C-13 3.67 -13 3.34 -13 3 Z " fill="#1C1C1C" transform="translate(873,449)"/>
<path d="M0 0 C3.68006822 3.38168431 5.9785845 6.42521756 8 11 C6.25 10.9375 6.25 10.9375 4 10 C1.55272534 6.7838181 0 4.07605096 0 0 Z " fill="#181818" transform="translate(90,393)"/>
<path d="M0 0 C3.63 1.65 7.26 3.3 11 5 C10.67 5.66 10.34 6.32 10 7 C6.2089881 5.55049545 2.6125362 3.84827434 -1 2 C-0.67 1.34 -0.34 0.68 0 0 Z " fill="#141414" transform="translate(716,239)"/>
<path d="M0 0 C3.81300782 3.2870757 5.22972246 6.39727838 7 11 C6.01 11 5.02 11 4 11 C0 4.5 0 4.5 0 0 Z " fill="#1D1D1D" transform="translate(731,183)"/>
<path d="M0 0 C0.66 0.33 1.32 0.66 2 1 C1.04663979 2.31611677 0.08714226 3.62778961 -0.875 4.9375 C-1.40867187 5.66839844 -1.94234375 6.39929688 -2.4921875 7.15234375 C-4 9 -4 9 -6 10 C-6.33 9.01 -6.66 8.02 -7 7 C-4.69 4.69 -2.38 2.38 0 0 Z " fill="#222222" transform="translate(315,755)"/>
<path d="M0 0 C0.33 0 0.66 0 1 0 C1.144375 1.0725 1.28875 2.145 1.4375 3.25 C1.87643559 6.75877181 1.87643559 6.75877181 2.625 9.125 C3.12208769 11.61043845 2.60855003 13.5657999 2 16 C-0.42130331 12.36804504 -0.21022785 10.61650652 -0.125 6.3125 C-0.09792969 4.54326172 -0.09792969 4.54326172 -0.0703125 2.73828125 C-0.04710937 1.83464844 -0.02390625 0.93101562 0 0 Z " fill="#0D0D0D" transform="translate(697,580)"/>
<path d="M0 0 C1.875 0.625 1.875 0.625 4 2 C5.25 5.125 5.25 5.125 6 8 C5.34 8.66 4.68 9.32 4 10 C3.32845067 8.71086513 2.66291141 7.41859796 2 6.125 C1.62875 5.40570312 1.2575 4.68640625 0.875 3.9453125 C0 2 0 2 0 0 Z " fill="#232323" transform="translate(137,564)"/>
<path d="M0 0 C-1.51671964 4.55015893 -5.16891053 6.50057264 -9 9 C-9.66 8.67 -10.32 8.34 -11 8 C-9.54712339 6.66072279 -8.08752741 5.32873153 -6.625 4 C-5.81289063 3.2575 -5.00078125 2.515 -4.1640625 1.75 C-2 0 -2 0 0 0 Z " fill="#232323" transform="translate(781,542)"/>
<path d="M0 0 C2.88437779 1.29299694 4.87219421 2.65941363 7 5 C6.67 5.99 6.34 6.98 6 8 C5.34 6.68 4.68 5.36 4 4 C3.01 4 2.02 4 1 4 C0.67 4.66 0.34 5.32 0 6 C-1 3 -1 3 0 0 Z " fill="#131313" transform="translate(714,474)"/>
<path d="M0 0 C0.66 0.66 1.32 1.32 2 2 C1.66226563 2.47050781 1.32453125 2.94101562 0.9765625 3.42578125 C0.30753906 4.35970703 0.30753906 4.35970703 -0.375 5.3125 C-0.81585938 5.92738281 -1.25671875 6.54226563 -1.7109375 7.17578125 C-2.83410907 8.7652392 -3.92041447 10.38062171 -5 12 C-5.33 11.01 -5.66 10.02 -6 9 C-4.78515625 6.73828125 -4.78515625 6.73828125 -3.0625 4.3125 C-2.49660156 3.50425781 -1.93070312 2.69601562 -1.34765625 1.86328125 C-0.90292969 1.24839844 -0.45820312 0.63351562 0 0 Z " fill="#181818" transform="translate(121,355)"/>
<path d="M0 0 C4.455 0.99 4.455 0.99 9 2 C7.02 2.99 7.02 2.99 5 4 C4.34 3.67 3.68 3.34 3 3 C3 3.99 3 4.98 3 6 C2.34 6 1.68 6 1 6 C0.67 4.02 0.34 2.04 0 0 Z " fill="#161616" transform="translate(682,226)"/>
<path d="M0 0 C0 2.97 0 5.94 0 9 C-0.99 9.495 -0.99 9.495 -2 10 C-2.33 7.03 -2.66 4.06 -3 1 C-1 0 -1 0 0 0 Z " fill="#131313" transform="translate(437,722)"/>
<path d="M0 0 C2.475 0.99 2.475 0.99 5 2 C5 2.66 5 3.32 5 4 C7.97 4.495 7.97 4.495 11 5 C9.02 5.99 9.02 5.99 7 7 C5.82780457 6.21654285 4.66236332 5.42297164 3.5 4.625 C2.8503125 4.18414063 2.200625 3.74328125 1.53125 3.2890625 C1.0259375 2.86367188 0.520625 2.43828125 0 2 C0 1.34 0 0.68 0 0 Z " fill="#1E1E1E" transform="translate(365,698)"/>
<path d="M0 0 C-1 3 -1 3 -3 4 C-2.67 4.66 -2.34 5.32 -2 6 C-2.99 6.33 -3.98 6.66 -5 7 C-5.66 5.68 -6.32 4.36 -7 3 C-2.25 0 -2.25 0 0 0 Z " fill="#232323" transform="translate(156,666)"/>
<path d="M0 0 C-1 3 -1 3 -2.75 4.125 C-5.15292138 5.05946943 -7.46046361 5.57674394 -10 6 C-10 5.01 -10 4.02 -10 3 C-8.70990357 2.49596232 -7.41786211 1.99690074 -6.125 1.5 C-5.04605469 1.08234375 -5.04605469 1.08234375 -3.9453125 0.65625 C-2 0 -2 0 0 0 Z " fill="#1D1D1D" transform="translate(742,601)"/>
<path d="M0 0 C0.66 0 1.32 0 2 0 C1.49357808 4.35522853 0.61588503 7.44239635 -2 11 C-2.66 11 -3.32 11 -4 11 C-3.52269162 9.5410574 -3.04308958 8.08286504 -2.5625 6.625 C-2.29566406 5.81289063 -2.02882813 5.00078125 -1.75390625 4.1640625 C-1 2 -1 2 0 0 Z " fill="#2B2B2B" transform="translate(670,538)"/>
<path d="M0 0 C0.99 0.33 1.98 0.66 3 1 C0.69 3.64 -1.62 6.28 -4 9 C-4.99 8.67 -5.98 8.34 -7 8 C-4.69 5.36 -2.38 2.72 0 0 Z " fill="#191919" transform="translate(158,400)"/>
<path d="M0 0 C0.8125 1.625 0.8125 1.625 1 4 C-1.3125 7.25 -1.3125 7.25 -4 10 C-4.66 10 -5.32 10 -6 10 C-6 7 -6 7 -3.5625 4.4375 C-2.716875 3.633125 -1.87125 2.82875 -1 2 C-0.67 1.34 -0.34 0.68 0 0 Z " fill="#121212" transform="translate(787,265)"/>
<path d="M0 0 C0.99 0 1.98 0 3 0 C4.65 3.3 6.3 6.6 8 10 C7.01 10.495 7.01 10.495 6 11 C4.02 7.37 2.04 3.74 0 0 Z " fill="#141414" transform="translate(760,256)"/>
<path d="M0 0 C0.33 0.99 0.66 1.98 1 3 C-6.625 4.25 -6.625 4.25 -10 2 C-6.38026598 0.68373308 -3.90432869 0 0 0 Z " fill="#222222" transform="translate(504,726)"/>
<path d="M0 0 C1.485 0.99 1.485 0.99 3 2 C3 2.66 3 3.32 3 4 C3.639375 4.2475 4.27875 4.495 4.9375 4.75 C7 6 7 6 7.62890625 8.078125 C7.75136719 8.71234375 7.87382813 9.3465625 8 10 C6.84481082 9.09515208 5.70114594 8.1755794 4.5625 7.25 C3.60537109 6.48429687 3.60537109 6.48429687 2.62890625 5.703125 C0.81189446 3.80332371 0.39576803 2.56413092 0 0 Z " fill="#0C0C0C" transform="translate(58,494)"/>
<path d="M0 0 C2.59482129 2.59482129 2.69990302 4.39883625 3 8 C2.34 8.66 1.68 9.32 1 10 C-0.83691257 6.21812119 -1.15837626 4.05431692 0 0 Z " fill="#191919" transform="translate(827,260)"/>
<path d="M0 0 C0.33 0.66 0.66 1.32 1 2 C0.34 1.67 -0.32 1.34 -1 1 C-0.67 0.67 -0.34 0.34 0 0 Z M-9 8 C-8.34 8.33 -7.68 8.66 -7 9 C-8.32 10.32 -9.64 11.64 -11 13 C-11.99 12.67 -12.98 12.34 -14 12 C-12.35 10.68 -10.7 9.36 -9 8 Z " fill="#0E0E0E" transform="translate(158,257)"/>
<path d="M0 0 C0.99 0.33 1.98 0.66 3 1 C3.84098656 5.01804691 4.05404945 8.01803543 3 12 C0.60926555 8.17482487 0.44033448 4.40334476 0 0 Z " fill="#1E1E1E" transform="translate(141,203)"/>
<path d="M0 0 C0.66 0 1.32 0 2 0 C3.65 2.97 5.3 5.94 7 9 C6.01 9 5.02 9 4 9 C0 3.85714286 0 3.85714286 0 0 Z " fill="#181818" transform="translate(686,197)"/>
<path d="M0 0 C-1.50223584 4.20626034 -4.28550034 5.73900021 -8 8 C-8 7.01 -8 6.02 -8 5 C-2.65116279 0 -2.65116279 0 0 0 Z " fill="#1D1D1D" transform="translate(191,162)"/>
<path d="M0 0 C2.64 0.33 5.28 0.66 8 1 C8 1.99 8 2.98 8 4 C5.03 3.67 2.06 3.34 -1 3 C-0.67 2.01 -0.34 1.02 0 0 Z " fill="#3D3D3D" transform="translate(256,738)"/>
<path d="M0 0 C1.45922693 0.11409593 2.91740598 0.24165544 4.375 0.375 C5.59316406 0.47941406 5.59316406 0.47941406 6.8359375 0.5859375 C9 1 9 1 11 3 C7.70303895 4.09898702 6.59505097 3.87124444 3.3125 3.0625 C2.10013672 2.77052734 2.10013672 2.77052734 0.86328125 2.47265625 C-0.05904297 2.23869141 -0.05904297 2.23869141 -1 2 C-0.67 1.34 -0.34 0.68 0 0 Z " fill="#1A1A1A" transform="translate(241,735)"/>
<path d="M0 0 C0 0.33 0 0.66 0 1 C-1.60397277 1.16852247 -3.2081869 1.33474886 -4.8125 1.5 C-5.70582031 1.5928125 -6.59914063 1.685625 -7.51953125 1.78125 C-10 2 -10 2 -13 2 C-13 1.34 -13 0.68 -13 0 C-8.38926889 -1.29676812 -4.66159911 -0.71109139 0 0 Z " fill="#161616" transform="translate(374,727)"/>
<path d="M0 0 C0.66 0 1.32 0 2 0 C2.66 2.97 3.32 5.94 4 9 C3.01 9 2.02 9 1 9 C0.67 6.03 0.34 3.06 0 0 Z " fill="#1B1B1B" transform="translate(241,572)"/>
<path d="M0 0 C0.66 0 1.32 0 2 0 C3.61949011 2.57213134 4.04408751 3.67669159 3.625 6.75 C3.41875 7.4925 3.2125 8.235 3 9 C1 6 1 6 1 3 C0.01 2.67 -0.98 2.34 -2 2 C-1.34 1.34 -0.68 0.68 0 0 Z " fill="#202020" transform="translate(184,473)"/>
<path d="M0 0 C0.66 0.33 1.32 0.66 2 1 C2.6328125 3.50390625 2.6328125 3.50390625 3.125 6.5625 C3.29257813 7.57441406 3.46015625 8.58632813 3.6328125 9.62890625 C3.75398438 10.41136719 3.87515625 11.19382812 4 12 C1.45886564 8.77471408 0.04492568 6.00554846 -1 2 C-0.67 1.34 -0.34 0.68 0 0 Z " fill="#121212" transform="translate(69,332)"/>
<path d="M0 0 C3.78611227 0.54087318 5.55400767 2.11722332 8 5 C8 5.66 8 6.32 8 7 C6.68 6.67 5.36 6.34 4 6 C4 5.34 4 4.68 4 4 C2.70766393 2.62689293 1.37562854 1.28965176 0 0 Z " fill="#151415" transform="translate(585,758)"/>
<path d="M0 0 C-3.35327639 2.23551759 -3.90743657 2.17283528 -7.6875 1.625 C-8.49574219 1.51414062 -9.30398438 1.40328125 -10.13671875 1.2890625 C-10.75160156 1.19367187 -11.36648438 1.09828125 -12 1 C-7.61991557 -1.58464442 -4.88874887 -0.81479148 0 0 Z " fill="#353435" transform="translate(303,740)"/>
<path d="M0 0 C4.54805635 -0.17835515 7.8794254 0.00214565 12 2 C11.01 2.66 10.02 3.32 9 4 C6.73828125 3.5390625 6.73828125 3.5390625 4.3125 2.625 C3.50425781 2.32851563 2.69601563 2.03203125 1.86328125 1.7265625 C1.24839844 1.48679687 0.63351563 1.24703125 0 1 C0 0.67 0 0.34 0 0 Z " fill="#262626" transform="translate(225,731)"/>
<path d="M0 0 C2.64 0.66 5.28 1.32 8 2 C8 2.99 8 3.98 8 5 C4.5625 4.1875 4.5625 4.1875 1 3 C0.67 2.01 0.34 1.02 0 0 Z " fill="#242424" transform="translate(651,694)"/>
<path d="M0 0 C1.12588014 0.95729916 2.2506715 1.91587895 3.375 2.875 C4.00148437 3.40867187 4.62796875 3.94234375 5.2734375 4.4921875 C6.55836651 5.61432007 7.79371975 6.79371975 9 8 C8.01 8.33 7.02 8.66 6 9 C0.77678571 4.17857143 0.77678571 4.17857143 0 0 Z " fill="#1F1F1F" transform="translate(215,634)"/>
<path d="M0 0 C1.98 1.65 3.96 3.3 6 5 C5.67 5.99 5.34 6.98 5 8 C4.566875 7.505 4.13375 7.01 3.6875 6.5 C2.00259517 4.66781808 2.00259517 4.66781808 -1 5 C-0.67 3.35 -0.34 1.7 0 0 Z " fill="#0A0A0A" transform="translate(264,574)"/>
<path d="M0 0 C0.66 0 1.32 0 2 0 C3.23076923 6.4 3.23076923 6.4 2.0625 9.4375 C1.711875 9.953125 1.36125 10.46875 1 11 C-0.17571451 7.32589215 -0.07366746 3.83070817 0 0 Z " fill="#2A2A2A" transform="translate(746,527)"/>
<path d="M0 0 C2.83022097 3.99560608 1.76210446 7.42737323 1 12 C-1.83022097 8.00439392 -0.76210446 4.57262677 0 0 Z " fill="#3D3D3D" transform="translate(855,387)"/>
<path d="M0 0 C2.64752004 2.57784846 4.94432065 4.91648098 7 8 C4 8 4 8 1.8125 6.25 C0 4 0 4 0 0 Z " fill="#282828" transform="translate(694,207)"/>
<path d="M0 0 C-1 3 -1 3 -4.0625 4.6875 C-5.031875 5.120625 -6.00125 5.55375 -7 6 C-7 5.01 -7 4.02 -7 3 C-2.77777778 0 -2.77777778 0 0 0 Z M-10 5 C-9.34 5 -8.68 5 -8 5 C-8.33 5.66 -8.66 6.32 -9 7 C-9.33 6.34 -9.66 5.68 -10 5 Z " fill="#151515" transform="translate(205,153)"/>
<path d="M0 0 C2.64752004 2.57784846 4.94432065 4.91648098 7 8 C6.01 8 5.02 8 4 8 C0 3.77142857 0 3.77142857 0 0 Z " fill="#262626" transform="translate(349,683)"/>
<path d="M0 0 C0.99 0.33 1.98 0.66 3 1 C0.36 2.98 -2.28 4.96 -5 7 C-5 6.01 -5 5.02 -5 4 C-2.6875 1.75 -2.6875 1.75 0 0 Z " fill="#191919" transform="translate(652,666)"/>
<path d="M0 0 C2.40072955 2.88087546 4.47291037 5.56404834 6 9 C5.01 9.495 5.01 9.495 4 10 C0 4.5 0 4.5 0 0 Z " fill="#141414" transform="translate(270,656)"/>
<path d="M0 0 C2.61973266 2.61973266 2.70813314 4.35166422 3 8 C2.0625 10.375 2.0625 10.375 1 12 C-0.3271261 8.0186217 -0.06915913 4.14954773 0 0 Z " fill="#292929" transform="translate(306,627)"/>
<path d="M0 0 C0.66 0 1.32 0 2 0 C1.35455571 3.48539917 -0.10134397 6.02819057 -2 9 C-2.66 8.34 -3.32 7.68 -4 7 C-2.68 4.69 -1.36 2.38 0 0 Z " fill="#171717" transform="translate(168,495)"/>
<path d="M0 0 C1.12758089 3.38274266 0.81750262 4.76778223 0.0625 8.1875 C-0.13214844 9.08855469 -0.32679688 9.98960937 -0.52734375 10.91796875 C-0.68332031 11.60503906 -0.83929687 12.29210937 -1 13 C-1.33 13 -1.66 13 -2 13 C-3.28571429 5.57142857 -3.28571429 5.57142857 -2 2 C-1.34 2 -0.68 2 0 2 C0 1.34 0 0.68 0 0 Z " fill="#131313" transform="translate(800,413)"/>
<path d="M0 0 C0.33 0.99 0.66 1.98 1 3 C0 4 0 4 -3.4375 4.1875 C-7 4 -7 4 -9 2 C-6.94921875 1.77213542 -4.8984375 1.54427083 -2.84765625 1.31640625 C-0.98859771 1.18113386 -0.98859771 1.18113386 0 0 Z " fill="#232323" transform="translate(787,410)"/>
<path d="M0 0 C3.00617269 3.00617269 2.59585316 5.82381598 3 10 C0.11192273 7.61419704 -0.61954948 5.70939253 -1 2 C-0.67 1.34 -0.34 0.68 0 0 Z " fill="#2A2A2A" transform="translate(738,371)"/>
<path d="M0 0 C3.82946843 1.45255699 5.12050295 3.42895561 7 7 C6.01 7 5.02 7 4 7 C0 2.65714286 0 2.65714286 0 0 Z " fill="#1B1B1B" transform="translate(750,265)"/>
<path d="M0 0 C0.33 0 0.66 0 1 0 C1.39036513 1.60049704 1.76178619 3.20562371 2.125 4.8125 C2.33382812 5.70582031 2.54265625 6.59914062 2.7578125 7.51953125 C3 10 3 10 1 13 C-0.00496852 9.98509443 -0.10335303 7.95818308 -0.0625 4.8125 C-0.05347656 3.91144531 -0.04445313 3.01039063 -0.03515625 2.08203125 C-0.02355469 1.39496094 -0.01195312 0.70789063 0 0 Z " fill="#272727" transform="translate(739,197)"/>
<path d="M0 0 C0.66 0.66 1.32 1.32 2 2 C-0.3125 3.5625 -0.3125 3.5625 -3 5 C-3.99 4.67 -4.98 4.34 -6 4 C-3.94766315 1.7522025 -2.99332739 0.9977758 0 0 Z " fill="#232323" transform="translate(260,705)"/>
<path d="M0 0 C0.66 0.66 1.32 1.32 2 2 C0.7260411 4.03833424 -0.61061923 6.03852126 -2 8 C-2.66 8 -3.32 8 -4 8 C-2.87548273 5.0280615 -1.77706209 2.66559313 0 0 Z " fill="#121212" transform="translate(563,665)"/>
<path d="M0 0 C2.9297008 2.82506863 5.50174717 5.78796065 8 9 C4.21304827 8.4590069 2.37254028 6.96567536 0 4 C0 2.68 0 1.36 0 0 Z " fill="#121212" transform="translate(713,569)"/>
<path d="M0 0 C2 3 2 3 1.625 5.6875 C1.41875 6.450625 1.2125 7.21375 1 8 C0.01 8 -0.98 8 -2 8 C-1.125 2.25 -1.125 2.25 0 0 Z " fill="#343434" transform="translate(747,564)"/>
<path d="M0 0 C2.96404505 2.80804268 5.44499019 5.18315774 7 9 C6.01 9.495 6.01 9.495 5 10 C4.15801693 8.90241493 3.32669329 7.79664683 2.5 6.6875 C2.0359375 6.07261719 1.571875 5.45773437 1.09375 4.82421875 C0 3 0 3 0 0 Z " fill="#171717" transform="translate(56,542)"/>
<path d="M0 0 C2.66735273 2.48952921 4.55746343 4.63408134 6 8 C5.01 8 4.02 8 3 8 C0.89229241 5.11165997 0 3.61537605 0 0 Z " fill="#151515" transform="translate(46,479)"/>
<path d="M0 0 C3.79588866 0.54226981 5.47211993 2.20127563 8 5 C5.37886292 5 3.49064888 4.68707555 1 4 C0.67 2.68 0.34 1.36 0 0 Z " fill="#232323" transform="translate(731,392)"/>
<path d="M0 0 C1.485 0.99 1.485 0.99 3 2 C3 2.66 3 3.32 3 4 C3.99 4.33 4.98 4.66 6 5 C6.6875 7.0625 6.6875 7.0625 7 9 C5.82460004 8.07347299 4.65989423 7.13336613 3.5 6.1875 C2.52546875 5.40439453 2.52546875 5.40439453 1.53125 4.60546875 C0 3 0 3 0 0 Z " fill="#0E0F0E" transform="translate(750,391)"/>
<path d="M0 0 C4.40114397 0.50298788 6.71195019 2.08772731 10 5 C9.01 5.495 9.01 5.495 8 6 C6.0546875 5.0390625 6.0546875 5.0390625 3.875 3.625 C3.15054688 3.16351563 2.42609375 2.70203125 1.6796875 2.2265625 C1.12539063 1.82179688 0.57109375 1.41703125 0 1 C0 0.67 0 0.34 0 0 Z " fill="#101010" transform="translate(48,360)"/>
<path d="M0 0 C2 1 2 1 3.1875 3.3125 C4.03624754 6.11989571 3.99928333 7.301935 3 10 C0.70366176 6.55549263 0.45983515 4.06187717 0 0 Z " fill="#101010" transform="translate(684,233)"/>
<path d="M0 0 C1.22376937 3.6713081 0.61664584 4.59653508 -1 8 C-1.99 9.485 -1.99 9.485 -3 11 C-3.66 10.67 -4.32 10.34 -5 10 C-3.35 6.7 -1.7 3.4 0 0 Z " fill="#2A2A2A" transform="translate(119,167)"/>
<path d="M0 0 C2.64 1.65 5.28 3.3 8 5 C7.34 5.66 6.68 6.32 6 7 C3.69 5.35 1.38 3.7 -1 2 C-0.67 1.34 -0.34 0.68 0 0 Z " fill="#141414" transform="translate(706,159)"/>
<path d="M0 0 C3.45925163 1.2491742 6.14693203 2.67527795 9 5 C5.61976483 5 3.16531063 4.12544378 0 3 C0 2.01 0 1.02 0 0 Z " fill="#242424" transform="translate(675,142)"/>
<path d="M0 0 C0.99 0 1.98 0 3 0 C3 1.65 3 3.3 3 5 C1.02 5.99 1.02 5.99 -1 7 C-1 6.01 -1 5.02 -1 4 C-0.34 4 0.32 4 1 4 C0.67 2.68 0.34 1.36 0 0 Z " fill="#131313" transform="translate(418,737)"/>
<path d="M0 0 C-2.5654594 2.5654594 -4.47686668 2.54046087 -8 3 C-8.33 2.34 -8.66 1.68 -9 1 C-3.375 -1.125 -3.375 -1.125 0 0 Z " fill="#1A191A" transform="translate(562,638)"/>
<path d="M0 0 C-0.639375 0.268125 -1.27875 0.53625 -1.9375 0.8125 C-4.33131686 1.88667752 -4.33131686 1.88667752 -5 5 C-5.99 4.67 -6.98 4.34 -8 4 C-5.97675095 -0.48005146 -4.79569304 -1.43870791 0 0 Z " fill="#3D3D3D" transform="translate(96,600)"/>
<path d="M0 0 C0.66 0.33 1.32 0.66 2 1 C0.87548273 3.9719385 -0.22293791 6.33440687 -2 9 C-2.66 8.67 -3.32 8.34 -4 8 C-2.68 5.36 -1.36 2.72 0 0 Z " fill="#222222" transform="translate(762,561)"/>
<path d="M0 0 C4.24822374 0.47202486 6.19989709 2.96655518 9 6 C4.58763974 6 3.21615077 3.9302707 0 1 C0 0.67 0 0.34 0 0 Z " fill="#242424" transform="translate(121,545)"/>
<path d="M0 0 C2.46278801 2.46278801 2.99771255 4.70676982 4 8 C3.01 8 2.02 8 1 8 C0.34 5.69 -0.32 3.38 -1 1 C-0.67 0.67 -0.34 0.34 0 0 Z " fill="#202020" transform="translate(686,539)"/>
<path d="M0 0 C3.03869411 1.51934706 3.64410306 3.98004772 5 7 C5 7.66 5 8.32 5 9 C2 8 2 8 0.8125 6.1875 C0 4 0 4 0 0 Z " fill="#191919" transform="translate(230,541)"/>
<path d="M0 0 C0.99 0 1.98 0 3 0 C5 3 5 3 4.625 5.1875 C4.41875 5.785625 4.2125 6.38375 4 7 C0 2.25 0 2.25 0 0 Z " fill="#1D1D1D" transform="translate(732,470)"/>
<path d="M0 0 C-2.75078884 0.91692961 -4.35948913 1.10886083 -7.1875 1.0625 C-9.0746875 1.0315625 -9.0746875 1.0315625 -11 1 C-6.68398307 -1.87734462 -4.56105874 -2.76921423 0 0 Z " fill="#262626" transform="translate(834,459)"/>
<path d="M0 0 C4.31392226 0.4793247 6.16569547 1.7457985 9 5 C4.98525763 5 3.18024863 3.33218233 0 1 C0 0.67 0 0.34 0 0 Z " fill="#1B1B1B" transform="translate(67,373)"/>
<path d="M0 0 C4.31392226 0.4793247 6.16569547 1.7457985 9 5 C8.01 5.495 8.01 5.495 7 6 C5.83054208 5.19152271 4.66449539 4.37810888 3.5 3.5625 C2.8503125 3.11003906 2.200625 2.65757812 1.53125 2.19140625 C1.0259375 1.79824219 0.520625 1.40507812 0 1 C0 0.67 0 0.34 0 0 Z " fill="#181818" transform="translate(741,321)"/>
<path d="M0 0 C0.75 1.75 0.75 1.75 1 4 C-0.9375 6.25 -0.9375 6.25 -3 8 C-3.33 7.34 -3.66 6.68 -4 6 C-2.68 4.02 -1.36 2.04 0 0 Z " fill="#191919" transform="translate(804,280)"/>
<path d="M0 0 C3.16115776 1.36983503 3.9927092 1.9890638 6 5 C2.89448334 5 1.64738916 4.4606285 -1 3 C-0.67 2.01 -0.34 1.02 0 0 Z " fill="#252525" transform="translate(75,253)"/>
<path d="M0 0 C0.66 0 1.32 0 2 0 C1.625 2.9375 1.625 2.9375 1 6 C0.01 6.495 0.01 6.495 -1 7 C-1.625 4.625 -1.625 4.625 -2 2 C-1.34 1.34 -0.68 0.68 0 0 Z " fill="#0F0F0F" transform="translate(481,735)"/>
<path d="M0 0 C-0.99 0.33 -1.98 0.66 -3 1 C-3 1.66 -3 2.32 -3 3 C-4.875 3.625 -4.875 3.625 -7 4 C-7.66 3.34 -8.32 2.68 -9 2 C-5.86501708 0.14223235 -3.62528568 -0.20140476 0 0 Z " fill="#2A2A2A" transform="translate(272,701)"/>
<path d="M0 0 C2.09749995 2.35968744 2.96905704 3.54616994 3.1875 6.75 C3.125625 7.4925 3.06375 8.235 3 9 C0.9375 6.75 0.9375 6.75 -1 4 C-0.75 1.6875 -0.75 1.6875 0 0 Z " fill="#242424" transform="translate(266,648)"/>
<path d="M0 0 C-2.8125 1.5625 -2.8125 1.5625 -6 3 C-6.99 2.67 -7.98 2.34 -9 2 C-8 0 -8 0 -6.1875 -0.6875 C-3.81180233 -1.02688538 -2.26664171 -0.72856341 0 0 Z " fill="#1B1B1B" transform="translate(536,648)"/>
<path d="M0 0 C5.75 0.75 5.75 0.75 8 3 C6.25 3.75 6.25 3.75 4 4 C1.75 2.0625 1.75 2.0625 0 0 Z " fill="#252525" transform="translate(131,638)"/>
<path d="M0 0 C0.99 0.33 1.98 0.66 3 1 C1.35 2.98 -0.3 4.96 -2 7 C-2.66 6.34 -3.32 5.68 -4 5 C-2.68 3.35 -1.36 1.7 0 0 Z " fill="#181818" transform="translate(609,602)"/>
<path d="M0 0 C2.31 0.66 4.62 1.32 7 2 C6.67 2.66 6.34 3.32 6 4 C3.03 3.505 3.03 3.505 0 3 C0 2.01 0 1.02 0 0 Z " fill="#111111" transform="translate(158,601)"/>
<path d="M0 0 C0.33 0 0.66 0 1 0 C1.22331199 1.58129029 1.42804644 3.16521089 1.625 4.75 C1.74101563 5.63171875 1.85703125 6.5134375 1.9765625 7.421875 C2.00207817 10.22859878 1.44843844 11.63384866 0 14 C-1.39151652 9.20699867 -0.68662689 4.84864218 0 0 Z " fill="#0B0B0B" transform="translate(748,553)"/>
<path d="M0 0 C0.66 0.99 1.32 1.98 2 3 C1.125 5.6875 1.125 5.6875 0 8 C-0.66 8 -1.32 8 -2 8 C-1.125 2.25 -1.125 2.25 0 0 Z " fill="#0C0C0C" transform="translate(192,552)"/>
<path d="M0 0 C1.89213369 2.38573379 3.02391783 4.07175348 4 7 C3.01 7 2.02 7 1 7 C0.34 5.02 -0.32 3.04 -1 1 C-0.67 0.67 -0.34 0.34 0 0 Z " fill="#222222" transform="translate(682,531)"/>
<path d="M0 0 C0.66 0 1.32 0 2 0 C1.75 2.375 1.75 2.375 1 5 C-1.0625 6.3125 -1.0625 6.3125 -3 7 C-1.125 2.25 -1.125 2.25 0 0 Z " fill="#1E1E1E" transform="translate(218,530)"/>
<path d="M0 0 C0.75 1.6875 0.75 1.6875 1 4 C-0.9375 6.75 -0.9375 6.75 -3 9 C-3.33 8.34 -3.66 7.68 -4 7 C-3.22265625 5.2734375 -3.22265625 5.2734375 -2.0625 3.375 C-1.381875 2.26125 -0.70125 1.1475 0 0 Z " fill="#1A1A1A" transform="translate(676,528)"/>
<path d="M0 0 C2.5 2.3125 2.5 2.3125 5 5 C5 5.99 5 6.98 5 8 C2.5 5.6875 2.5 5.6875 0 3 C0 2.01 0 1.02 0 0 Z " fill="#272727" transform="translate(742,483)"/>
<path d="M0 0 C4.75 1.875 4.75 1.875 7 3 C6.67 3.99 6.34 4.98 6 6 C3.96166576 4.7260411 1.96147874 3.38938077 0 2 C0 1.34 0 0.68 0 0 Z " fill="#131313" transform="translate(76,444)"/>
<path d="M0 0 C1.9375 0.75 1.9375 0.75 4 2 C4.75 4.125 4.75 4.125 5 6 C4.01 6 3.02 6 2 6 C1.34 4.02 0.68 2.04 0 0 Z " fill="#232323" transform="translate(765,434)"/>
<path d="M0 0 C0.66 0 1.32 0 2 0 C2.66 2.31 3.32 4.62 4 7 C3.01 7.495 3.01 7.495 2 8 C0.74335022 5.09399739 0 3.20395416 0 0 Z " fill="#111111" transform="translate(48,405)"/>
<path d="M0 0 C2.52588702 2.36292656 3.88820837 3.66462511 5 7 C4.01 7.495 4.01 7.495 3 8 C0.37613513 4.93882432 0 4.26826873 0 0 Z " fill="#131313" transform="translate(74,343)"/>
<path d="M0 0 C0.66 0 1.32 0 2 0 C3.03039555 4.53374042 3.17766075 5.64467851 1 10 C0.67 6.7 0.34 3.4 0 0 Z " fill="#101010" transform="translate(831,281)"/>
<path d="M0 0 C0.99 0.33 1.98 0.66 3 1 C1.68 2.65 0.36 4.3 -1 6 C-1.99 5.67 -2.98 5.34 -4 5 C-2.68 3.35 -1.36 1.7 0 0 Z " fill="#181818" transform="translate(172,178)"/>
<path d="M0 0 C2.83022097 3.99560608 1.76210446 7.42737323 1 12 C0.67 12 0.34 12 0 12 C-1.28571429 3.42857143 -1.28571429 3.42857143 0 0 Z " fill="#292929" transform="translate(670,148)"/>
</svg>
